<?xml version="1.0" encoding="utf-8"?>
<!-- Generator: Adobe Illustrator 27.5.0, SVG Export Plug-In . SVG Version: 6.00 Build 0)  -->
<svg version="1.1" xmlns="http://www.w3.org/2000/svg" xmlns:xlink="http://www.w3.org/1999/xlink" x="0px" y="0px"
	 viewBox="0 0 500 500" style="enable-background:new 0 0 500 500;" xml:space="preserve">
<g id="Background_Simple">
	<g>
		<path style="fill:#92E3A9;" d="M452.282,118.763c-1.659-2.762-3.384-5.472-5.186-8.122c-23.997-35.26-63.947-59.4-102.773-70.333
			c-17.009-4.797-34.472-7.306-51.905-7.947c-114.344-4.155-156.35,90.124-193.19,114.432
			c-36.84,24.309-93.374,65.829-86.28,153.049c5.383,66.316,43.109,129.726,112.009,158.581c7.589,3.188,15.563,5.955,23.912,8.251
			c15.531,4.273,32.363,6.955,50.5,7.762c52.092,2.321,94.389-10.236,135.763-41.857c9.617-7.35,19.183-15.641,31.664-16.549
			c9.072-0.66,17.673,2.599,8.19,11.366c-11.145,10.305,1.715,30.572,30.006,16.491c47.251-23.517,66.689-74.256,75.846-125.85
			C492.078,254.708,486.629,175.952,452.282,118.763z"/>
		<path style="opacity:0.7;fill:#FFFFFF;" d="M452.282,118.763c-1.659-2.762-3.384-5.472-5.186-8.122
			c-23.997-35.26-63.947-59.4-102.773-70.333c-17.009-4.797-34.472-7.306-51.905-7.947c-114.344-4.155-156.35,90.124-193.19,114.432
			c-36.84,24.309-93.374,65.829-86.28,153.049c5.383,66.316,43.109,129.726,112.009,158.581c7.589,3.188,15.563,5.955,23.912,8.251
			c15.531,4.273,32.363,6.955,50.5,7.762c52.092,2.321,94.389-10.236,135.763-41.857c9.617-7.35,19.183-15.641,31.664-16.549
			c9.072-0.66,17.673,2.599,8.19,11.366c-11.145,10.305,1.715,30.572,30.006,16.491c47.251-23.517,66.689-74.256,75.846-125.85
			C492.078,254.708,486.629,175.952,452.282,118.763z"/>
	</g>
</g>
<g id="Clouds">
	<g>
		<path style="fill:none;stroke:#263238;stroke-linecap:round;stroke-linejoin:round;stroke-miterlimit:10;" d="M449.686,68.301
			c0,0-3.793-15.805-25.919-18.966s-25.287,15.805-29.713,18.333c-4.425,2.529-6.954-4.425-13.908-3.793
			c-6.954,0.632-10.747,6.322-13.908,8.851c-3.161,2.529-8.851-5.058-13.276-3.793c-4.425,1.264-8.218,7.586-8.218,7.586h128.333
			c0,0-4.425-6.954-10.747-9.483C456.008,64.508,453.479,68.301,449.686,68.301z"/>
		<path style="fill:none;stroke:#263238;stroke-linecap:round;stroke-linejoin:round;stroke-miterlimit:10;" d="M137.388,160.6
			c0,0-3.793-15.805-25.92-18.965c-22.126-3.161-25.287,15.805-29.713,18.333c-4.425,2.529-6.954-4.425-13.908-3.793
			c-6.954,0.632-10.747,6.322-13.908,8.85c-3.161,2.529-8.851-5.057-13.276-3.793c-4.425,1.264-8.218,7.586-8.218,7.586h128.333
			c0,0-4.425-6.954-10.747-9.483C143.71,156.807,141.181,160.6,137.388,160.6z"/>
		<path style="fill:none;stroke:#263238;stroke-linecap:round;stroke-linejoin:round;stroke-miterlimit:10;" d="M415.992,315.892
			c0,0-2.438-10.159-16.661-12.191s-16.254,10.159-19.099,11.784c-2.844,1.625-4.47-2.845-8.94-2.438
			c-4.47,0.406-6.908,4.064-8.94,5.689c-2.032,1.625-5.689-3.251-8.534-2.438c-2.844,0.813-5.283,4.876-5.283,4.876h82.491
			c0,0-2.845-4.47-6.908-6.095C420.056,313.453,418.431,315.892,415.992,315.892z"/>
	</g>
</g>
<g id="Bushes">
	<g>
		<g>
			<path style="fill:#92E3A9;" d="M347.727,433.703c-1.283-10.768-9.627-32.099-21.609-38.091
				c-12.697-6.349-22.22,8.162-44.893,18.592c-22.673,10.43-16.778-7.709-40.358-21.766c-23.58-14.057-26.754,5.441-36.277,9.976
				c-9.85,4.691-15.661-12.551-17.982-18.95c-4.537-12.51-9.825-23.235-21.581-30.66c-18.163-11.472-49.219-10.566-58.821,11.653
				c-2.884,6.673-1.843,18.92-9.089,22.54c-10.886,5.439-38.995-0.906-40.809,17.23c-0.628,6.281,1.258,11.871,3.991,16.497
				c0.794,2.406,1.408,4.943,0.997,6.176c-0.907,2.721-6.802-3.628-11.79-0.454c-3.237,2.06-5.513,5.259-6.716,7.255H347.727z"/>
			<g>
				<path style="fill:#FFFFFF;" d="M134.141,371.05c0,0-0.783,3.627,0.844,6.637c1.628,3.009,3.854,5.009,3.854,5.009
					S140.455,376.97,134.141,371.05z"/>
				<path style="fill:#FFFFFF;" d="M103.734,403.09c0,0,2.797,2.439,6.218,2.468c3.421,0.029,6.247-0.953,6.247-0.953
					S111.969,400.422,103.734,403.09z"/>
				<path style="fill:#FFFFFF;" d="M74.04,398.994c0,0,2.797,2.439,6.218,2.468s6.247-0.954,6.247-0.954
					S82.274,396.326,74.04,398.994z"/>
				<path style="fill:#FFFFFF;" d="M99.474,418.122c0,0,3.395,1.499,6.671,0.511c3.276-0.988,5.683-2.765,5.683-2.765
					S106.546,413.131,99.474,418.122z"/>
				<path style="fill:#FFFFFF;" d="M69.323,414.293c0,0,3.395,1.499,6.671,0.511c3.276-0.988,5.683-2.765,5.683-2.765
					S76.395,409.302,69.323,414.293z"/>
				<path style="fill:#FFFFFF;" d="M119.75,419.688c0,0,3.711-0.049,6.278-2.31c2.568-2.261,4.018-4.878,4.018-4.878
					S124.104,412.207,119.75,419.688z"/>
				<path style="fill:#FFFFFF;" d="M77.565,430.427c0,0,3.711-0.049,6.279-2.311c2.568-2.261,4.018-4.878,4.018-4.878
					S81.919,422.946,77.565,430.427z"/>
				<path style="fill:#FFFFFF;" d="M111.195,374.802c0,0,0.842,3.614,3.599,5.639c2.758,2.025,5.624,2.882,5.624,2.882
					S119.434,377.455,111.195,374.802z"/>
				<path style="fill:#FFFFFF;" d="M171.694,372.122c0,0-3.674,0.521-5.934,3.09c-2.26,2.569-3.365,5.349-3.365,5.349
					S168.326,380.096,171.694,372.122z"/>
				<path style="fill:#FFFFFF;" d="M184.426,391.215c0,0-3.628-0.78-6.636,0.85c-3.008,1.631-5.005,3.858-5.005,3.858
					S178.511,397.535,184.426,391.215z"/>
				<path style="fill:#FFFFFF;" d="M183.18,412.904c0,0-2.616-2.632-6.026-2.905c-3.411-0.273-6.299,0.505-6.299,0.505
					S174.777,414.977,183.18,412.904z"/>
				<path style="fill:#FFFFFF;" d="M168.971,424.542c0,0-1.506-3.392-4.595-4.862c-3.089-1.471-6.066-1.773-6.066-1.773
					S160.381,423.484,168.971,424.542z"/>
				<path style="fill:#FFFFFF;" d="M161.493,389.35c0,0-3.674,0.521-5.934,3.09c-2.26,2.569-3.365,5.349-3.365,5.349
					S158.125,397.323,161.493,389.35z"/>
				<path style="fill:#FFFFFF;" d="M101.293,384.566c0,0,1.635,3.331,4.779,4.682c3.144,1.351,6.13,1.539,6.13,1.539
					S109.918,385.293,101.293,384.566z"/>
				<path style="fill:#FFFFFF;" d="M153.686,367.01c0,0-2.975,2.219-3.726,5.557c-0.751,3.338-0.388,6.308-0.388,6.308
					S154.554,375.621,153.686,367.01z"/>
				<path style="fill:#FFFFFF;" d="M142.467,356.511c0,0-1.689,3.305-0.888,6.631c0.801,3.327,2.438,5.831,2.438,5.831
					S147.049,363.854,142.467,356.511z"/>
				<path style="fill:#FFFFFF;" d="M118.181,360.04c0,0,0,3.711,2.227,6.309c2.227,2.598,4.824,4.082,4.824,4.082
					S125.603,364.494,118.181,360.04z"/>
			</g>
			<g>
				<path style="fill:#FFFFFF;" d="M224.317,399.313c0,0-0.455,2.106,0.49,3.854c0.945,1.747,2.238,2.909,2.238,2.909
					S227.983,402.75,224.317,399.313z"/>
				<path style="fill:#FFFFFF;" d="M206.661,417.917c0,0,1.624,1.416,3.611,1.433c1.987,0.017,3.628-0.554,3.628-0.554
					S211.442,416.368,206.661,417.917z"/>
				<path style="fill:#FFFFFF;" d="M204.187,426.646c0,0,1.971,0.87,3.873,0.297c1.902-0.574,3.3-1.605,3.3-1.605
					S208.293,423.748,204.187,426.646z"/>
				<path style="fill:#FFFFFF;" d="M215.961,427.555c0,0,2.155-0.029,3.646-1.342c1.491-1.313,2.333-2.833,2.333-2.833
					S218.489,423.211,215.961,427.555z"/>
				<path style="fill:#FFFFFF;" d="M210.993,401.491c0,0,0.489,2.099,2.09,3.275c1.601,1.176,3.266,1.673,3.266,1.673
					S215.777,403.032,210.993,401.491z"/>
				<path style="fill:#FFFFFF;" d="M246.123,399.935c0,0-2.133,0.302-3.446,1.794c-1.312,1.492-1.954,3.106-1.954,3.106
					S244.167,404.565,246.123,399.935z"/>
				<path style="fill:#FFFFFF;" d="M253.516,411.022c0,0-2.107-0.453-3.853,0.494c-1.747,0.947-2.906,2.24-2.906,2.24
					S250.081,414.692,253.516,411.022z"/>
				<path style="fill:#FFFFFF;" d="M252.792,423.616c0,0-1.519-1.529-3.499-1.687c-1.98-0.159-3.658,0.293-3.658,0.293
					S247.913,424.819,252.792,423.616z"/>
				<path style="fill:#FFFFFF;" d="M244.542,430.373c0,0-0.875-1.969-2.668-2.823c-1.794-0.854-3.522-1.029-3.522-1.029
					S239.553,429.759,244.542,430.373z"/>
				<path style="fill:#FFFFFF;" d="M240.199,409.939c0,0-2.134,0.302-3.446,1.794c-1.312,1.492-1.954,3.106-1.954,3.106
					S238.244,414.569,240.199,409.939z"/>
				<path style="fill:#FFFFFF;" d="M205.243,407.161c0,0,0.95,1.934,2.775,2.719c1.825,0.784,3.559,0.893,3.559,0.893
					S210.251,407.583,205.243,407.161z"/>
				<path style="fill:#FFFFFF;" d="M235.666,396.966c0,0-1.727,1.288-2.163,3.227c-0.436,1.938-0.225,3.663-0.225,3.663
					S236.17,401.967,235.666,396.966z"/>
				<path style="fill:#FFFFFF;" d="M229.151,390.87c0,0-0.981,1.919-0.516,3.85c0.465,1.931,1.416,3.385,1.416,3.385
					S231.812,395.134,229.151,390.87z"/>
				<path style="fill:#FFFFFF;" d="M215.05,392.92c0,0,0,2.155,1.293,3.663c1.293,1.508,2.801,2.37,2.801,2.37
					S219.359,395.506,215.05,392.92z"/>
			</g>
			<g>
				<path style="fill:#FFFFFF;" d="M312.035,407.504c0,0-0.455,2.106,0.49,3.854c0.945,1.747,2.238,2.909,2.238,2.909
					S315.702,410.942,312.035,407.504z"/>
				<path style="fill:#FFFFFF;" d="M294.379,426.109c0,0,1.624,1.416,3.611,1.433c1.987,0.017,3.628-0.554,3.628-0.554
					S299.161,424.56,294.379,426.109z"/>
				<path style="fill:#FFFFFF;" d="M298.712,409.682c0,0,0.489,2.099,2.09,3.275c1.601,1.176,3.266,1.673,3.266,1.673
					S303.495,411.224,298.712,409.682z"/>
				<path style="fill:#FFFFFF;" d="M333.841,408.127c0,0-2.134,0.302-3.446,1.794c-1.312,1.492-1.954,3.106-1.954,3.106
					S331.885,412.757,333.841,408.127z"/>
				<path style="fill:#FFFFFF;" d="M341.234,419.214c0,0-2.107-0.453-3.853,0.494c-1.747,0.947-2.906,2.24-2.906,2.24
					S337.8,422.883,341.234,419.214z"/>
				<path style="fill:#FFFFFF;" d="M340.511,431.807c0,0-1.519-1.529-3.499-1.687c-1.98-0.159-3.658,0.293-3.658,0.293
					S335.631,433.011,340.511,431.807z"/>
				<path style="fill:#FFFFFF;" d="M327.918,418.13c0,0-2.133,0.302-3.446,1.794c-1.312,1.492-1.954,3.106-1.954,3.106
					S325.962,422.76,327.918,418.13z"/>
				<path style="fill:#FFFFFF;" d="M292.962,415.352c0,0,0.95,1.934,2.775,2.719c1.825,0.784,3.559,0.893,3.559,0.893
					S297.97,415.774,292.962,415.352z"/>
				<path style="fill:#FFFFFF;" d="M323.384,405.158c0,0-1.727,1.288-2.163,3.227c-0.436,1.938-0.225,3.663-0.225,3.663
					S323.888,410.159,323.384,405.158z"/>
				<path style="fill:#FFFFFF;" d="M316.87,399.062c0,0-0.981,1.919-0.516,3.85c0.465,1.932,1.416,3.386,1.416,3.386
					S319.531,403.326,316.87,399.062z"/>
				<path style="fill:#FFFFFF;" d="M302.768,401.111c0,0,0,2.155,1.293,3.663c1.293,1.508,2.801,2.37,2.801,2.37
					S307.078,403.697,302.768,401.111z"/>
			</g>
			<g>
				<polygon style="fill:#A1A1A1;" points="126.595,433.703 134.669,433.703 131.13,415.565 147.908,402.414 128.863,411.483 
					123.421,385.636 127.956,432.796 116.166,428.261 93.947,419.646 118.433,433.249 				"/>
				<polygon style="fill:#A1A1A1;" points="226.81,409.216 215.927,432.796 220.462,433.249 223.182,426.448 235.311,424.268 
					224.089,421.913 				"/>
				<polygon style="fill:#A1A1A1;" points="307.072,420.552 313.421,433.249 314.528,426.388 				"/>
				<polygon style="fill:#A1A1A1;" points="318.907,433.703 319.815,424.469 327.932,418.285 320.291,419.634 321.583,406.495 
					313.421,433.249 316.141,433.703 				"/>
			</g>
		</g>
		<g>
			<path style="fill:#92E3A9;" d="M455.263,433.703c-1.283-10.768-9.627-32.099-21.609-38.091
				c-12.697-6.349-22.22,8.162-44.893,18.592c-22.673,10.43-16.778-7.709-40.358-21.766c-23.58-14.057-26.754,5.441-36.277,9.976
				c-9.85,4.691-15.661-12.551-17.981-18.95c-4.537-12.51-9.825-23.235-21.581-30.66c-18.163-11.472-49.219-10.566-58.821,11.653
				c-2.884,6.673-1.843,18.92-9.089,22.54c-10.886,5.439-38.995-0.906-40.809,17.23c-0.628,6.281,1.258,11.871,3.991,16.497
				c0.794,2.406,1.408,4.943,0.997,6.176c-0.907,2.721-6.802-3.628-11.79-0.454c-3.238,2.06-5.513,5.259-6.716,7.255H455.263z"/>
			<g>
				<path style="fill:#FFFFFF;" d="M241.677,371.05c0,0-0.784,3.627,0.844,6.637s3.854,5.009,3.854,5.009
					S247.992,376.97,241.677,371.05z"/>
				<path style="fill:#FFFFFF;" d="M211.271,403.09c0,0,2.797,2.439,6.218,2.468c3.421,0.029,6.247-0.953,6.247-0.953
					S219.505,400.422,211.271,403.09z"/>
				<path style="fill:#FFFFFF;" d="M181.576,398.994c0,0,2.797,2.439,6.218,2.468c3.421,0.029,6.247-0.954,6.247-0.954
					S189.81,396.326,181.576,398.994z"/>
				<path style="fill:#FFFFFF;" d="M207.01,418.122c0,0,3.395,1.499,6.671,0.511c3.276-0.988,5.683-2.765,5.683-2.765
					S214.082,413.131,207.01,418.122z"/>
				<path style="fill:#FFFFFF;" d="M176.859,414.293c0,0,3.395,1.499,6.671,0.511s5.683-2.765,5.683-2.765
					S183.931,409.302,176.859,414.293z"/>
				<path style="fill:#FFFFFF;" d="M227.286,419.688c0,0,3.711-0.049,6.278-2.31c2.568-2.261,4.018-4.878,4.018-4.878
					S231.64,412.207,227.286,419.688z"/>
				<path style="fill:#FFFFFF;" d="M185.102,430.427c0,0,3.711-0.049,6.279-2.311c2.568-2.261,4.018-4.878,4.018-4.878
					S189.455,422.946,185.102,430.427z"/>
				<path style="fill:#FFFFFF;" d="M218.732,374.802c0,0,0.842,3.614,3.599,5.639c2.758,2.025,5.625,2.882,5.625,2.882
					S226.97,377.455,218.732,374.802z"/>
				<path style="fill:#FFFFFF;" d="M279.23,372.122c0,0-3.674,0.521-5.934,3.09c-2.26,2.569-3.365,5.349-3.365,5.349
					S275.862,380.096,279.23,372.122z"/>
				<path style="fill:#FFFFFF;" d="M291.962,391.215c0,0-3.628-0.78-6.636,0.85c-3.008,1.631-5.005,3.858-5.005,3.858
					S286.048,397.535,291.962,391.215z"/>
				<path style="fill:#FFFFFF;" d="M290.717,412.904c0,0-2.616-2.632-6.026-2.905c-3.411-0.273-6.299,0.505-6.299,0.505
					S282.313,414.977,290.717,412.904z"/>
				<path style="fill:#FFFFFF;" d="M276.508,424.542c0,0-1.506-3.392-4.595-4.862c-3.089-1.471-6.066-1.773-6.066-1.773
					S267.917,423.484,276.508,424.542z"/>
				<path style="fill:#FFFFFF;" d="M269.029,389.35c0,0-3.674,0.521-5.934,3.09c-2.26,2.569-3.365,5.349-3.365,5.349
					S265.661,397.323,269.029,389.35z"/>
				<path style="fill:#FFFFFF;" d="M208.829,384.566c0,0,1.635,3.331,4.779,4.682c3.143,1.351,6.13,1.539,6.13,1.539
					S217.454,385.293,208.829,384.566z"/>
				<path style="fill:#FFFFFF;" d="M261.222,367.01c0,0-2.975,2.219-3.726,5.557c-0.751,3.338-0.388,6.308-0.388,6.308
					S262.09,375.621,261.222,367.01z"/>
				<path style="fill:#FFFFFF;" d="M250.003,356.511c0,0-1.689,3.305-0.888,6.631c0.8,3.327,2.438,5.831,2.438,5.831
					S254.585,363.854,250.003,356.511z"/>
				<path style="fill:#FFFFFF;" d="M225.717,360.04c0,0,0,3.711,2.227,6.309c2.227,2.598,4.824,4.082,4.824,4.082
					S233.14,364.494,225.717,360.04z"/>
			</g>
			<g>
				<path style="fill:#FFFFFF;" d="M331.853,399.313c0,0-0.455,2.106,0.49,3.854c0.945,1.747,2.238,2.909,2.238,2.909
					S335.52,402.75,331.853,399.313z"/>
				<path style="fill:#FFFFFF;" d="M314.197,417.917c0,0,1.624,1.416,3.611,1.433c1.987,0.017,3.628-0.554,3.628-0.554
					S318.978,416.368,314.197,417.917z"/>
				<path style="fill:#FFFFFF;" d="M311.723,426.646c0,0,1.971,0.87,3.873,0.297c1.902-0.574,3.3-1.605,3.3-1.605
					S315.829,423.748,311.723,426.646z"/>
				<path style="fill:#FFFFFF;" d="M323.497,427.555c0,0,2.155-0.029,3.646-1.342c1.491-1.313,2.333-2.833,2.333-2.833
					S326.025,423.211,323.497,427.555z"/>
				<path style="fill:#FFFFFF;" d="M318.529,401.491c0,0,0.489,2.099,2.09,3.275c1.601,1.176,3.266,1.673,3.266,1.673
					S323.313,403.032,318.529,401.491z"/>
				<path style="fill:#FFFFFF;" d="M353.659,399.935c0,0-2.133,0.302-3.446,1.794c-1.312,1.492-1.954,3.106-1.954,3.106
					S351.703,404.565,353.659,399.935z"/>
				<path style="fill:#FFFFFF;" d="M361.052,411.022c0,0-2.107-0.453-3.853,0.494c-1.746,0.947-2.906,2.24-2.906,2.24
					S357.617,414.692,361.052,411.022z"/>
				<path style="fill:#FFFFFF;" d="M360.329,423.616c0,0-1.519-1.529-3.499-1.687c-1.98-0.159-3.658,0.293-3.658,0.293
					S355.449,424.819,360.329,423.616z"/>
				<path style="fill:#FFFFFF;" d="M352.078,430.373c0,0-0.874-1.969-2.668-2.823c-1.794-0.854-3.522-1.029-3.522-1.029
					S347.089,429.759,352.078,430.373z"/>
				<path style="fill:#FFFFFF;" d="M347.736,409.939c0,0-2.134,0.302-3.446,1.794c-1.312,1.492-1.954,3.106-1.954,3.106
					S345.78,414.569,347.736,409.939z"/>
				<path style="fill:#FFFFFF;" d="M312.779,407.161c0,0,0.95,1.934,2.775,2.719c1.825,0.784,3.559,0.893,3.559,0.893
					S317.788,407.583,312.779,407.161z"/>
				<path style="fill:#FFFFFF;" d="M343.202,396.966c0,0-1.727,1.288-2.163,3.227c-0.436,1.938-0.225,3.663-0.225,3.663
					S343.706,401.967,343.202,396.966z"/>
				<path style="fill:#FFFFFF;" d="M336.688,390.87c0,0-0.981,1.919-0.516,3.85s1.416,3.385,1.416,3.385
					S339.348,395.134,336.688,390.87z"/>
				<path style="fill:#FFFFFF;" d="M322.586,392.92c0,0,0,2.155,1.293,3.663c1.293,1.508,2.801,2.37,2.801,2.37
					S326.896,395.506,322.586,392.92z"/>
			</g>
			<g>
				<path style="fill:#FFFFFF;" d="M419.571,407.504c0,0-0.455,2.106,0.49,3.854c0.945,1.747,2.238,2.909,2.238,2.909
					S423.238,410.942,419.571,407.504z"/>
				<path style="fill:#FFFFFF;" d="M401.915,426.109c0,0,1.624,1.416,3.611,1.433c1.986,0.017,3.628-0.554,3.628-0.554
					S406.697,424.56,401.915,426.109z"/>
				<path style="fill:#FFFFFF;" d="M406.248,409.682c0,0,0.489,2.099,2.09,3.275c1.601,1.176,3.266,1.673,3.266,1.673
					S411.032,411.224,406.248,409.682z"/>
				<path style="fill:#FFFFFF;" d="M441.377,408.127c0,0-2.134,0.302-3.446,1.794c-1.312,1.492-1.954,3.106-1.954,3.106
					S439.421,412.757,441.377,408.127z"/>
				<path style="fill:#FFFFFF;" d="M448.77,419.214c0,0-2.107-0.453-3.853,0.494c-1.747,0.947-2.906,2.24-2.906,2.24
					S445.336,422.883,448.77,419.214z"/>
				<path style="fill:#FFFFFF;" d="M448.047,431.807c0,0-1.519-1.529-3.499-1.687c-1.98-0.159-3.658,0.293-3.658,0.293
					S443.167,433.011,448.047,431.807z"/>
				<path style="fill:#FFFFFF;" d="M435.454,418.13c0,0-2.134,0.302-3.446,1.794c-1.312,1.492-1.954,3.106-1.954,3.106
					S433.498,422.76,435.454,418.13z"/>
				<path style="fill:#FFFFFF;" d="M400.498,415.352c0,0,0.95,1.934,2.775,2.719c1.825,0.784,3.559,0.893,3.559,0.893
					S405.506,415.774,400.498,415.352z"/>
				<path style="fill:#FFFFFF;" d="M430.921,405.158c0,0-1.727,1.288-2.163,3.227c-0.436,1.938-0.225,3.663-0.225,3.663
					S431.425,410.159,430.921,405.158z"/>
				<path style="fill:#FFFFFF;" d="M424.406,399.062c0,0-0.981,1.919-0.516,3.85c0.465,1.932,1.416,3.386,1.416,3.386
					S427.067,403.326,424.406,399.062z"/>
				<path style="fill:#FFFFFF;" d="M410.304,401.111c0,0,0,2.155,1.293,3.663c1.293,1.508,2.802,2.37,2.802,2.37
					S414.614,403.697,410.304,401.111z"/>
			</g>
			<g>
				<polygon style="fill:#A1A1A1;" points="234.131,433.703 242.206,433.703 238.666,415.565 255.444,402.414 236.399,411.483 
					230.957,385.636 235.492,432.796 223.702,428.261 201.483,419.646 225.969,433.249 				"/>
				<polygon style="fill:#A1A1A1;" points="334.346,409.216 323.463,432.796 327.998,433.249 330.719,426.448 342.847,424.268 
					331.626,421.913 				"/>
				<polygon style="fill:#A1A1A1;" points="414.609,420.552 420.957,433.249 422.064,426.388 				"/>
				<polygon style="fill:#A1A1A1;" points="426.443,433.703 427.352,424.469 435.468,418.285 427.827,419.634 429.119,406.495 
					420.957,433.249 423.678,433.703 				"/>
			</g>
		</g>
	</g>
</g>
<g id="Swing">
	<g>
		<path style="fill:#263238;stroke:#263238;stroke-linecap:round;stroke-linejoin:round;stroke-miterlimit:10;" d="M325.019,351.867
			c-15.144,0-27.42,12.276-27.42,27.42c0,15.144,12.276,27.42,27.42,27.42c15.144,0,27.42-12.276,27.42-27.42
			C352.439,364.143,340.162,351.867,325.019,351.867z M325.019,395.622c-9.022,0-16.335-7.314-16.335-16.335
			c0-9.022,7.314-16.335,16.335-16.335c9.022,0,16.335,7.314,16.335,16.335C341.354,388.309,334.04,395.622,325.019,395.622z"/>
		<path style="fill:#FFFFFF;stroke:#263238;stroke-linecap:round;stroke-linejoin:round;stroke-miterlimit:10;" d="M325.019,365.743
			L325.019,365.743c-0.674,0-1.22-0.546-1.22-1.22v-68.042h2.441v68.042C326.239,365.197,325.693,365.743,325.019,365.743z"/>
		
			<circle style="fill:#FFFFFF;stroke:#263238;stroke-linecap:round;stroke-linejoin:round;stroke-miterlimit:10;" cx="325.488" cy="350.896" r="2.2"/>
	</g>
</g>
<g id="Tree_House">
	<g>
		<g>
			<g>
				<polygon style="fill:#263238;stroke:#263238;stroke-linecap:round;stroke-linejoin:round;stroke-miterlimit:10;" points="
					219.354,288.039 181.461,328.02 181.461,333.883 219.354,293.902 				"/>
			</g>
			
				<rect x="155.701" y="328.02" style="fill:#263238;stroke:#263238;stroke-linecap:round;stroke-linejoin:round;stroke-miterlimit:10;" width="4.768" height="105.683"/>
			
				<rect x="219.716" y="290.465" style="fill:#263238;stroke:#263238;stroke-linecap:round;stroke-linejoin:round;stroke-miterlimit:10;" width="4.768" height="27.298"/>
			
				<rect x="176.656" y="328.02" style="fill:#263238;stroke:#263238;stroke-linecap:round;stroke-linejoin:round;stroke-miterlimit:10;" width="4.768" height="105.683"/>
			<g>
				
					<rect x="171.796" y="352.737" style="fill:#263238;stroke:#263238;stroke-linecap:round;stroke-linejoin:round;stroke-miterlimit:10;" width="23.062" height="9.302"/>
				
					<rect x="181.795" y="341.807" style="fill:#263238;stroke:#263238;stroke-linecap:round;stroke-linejoin:round;stroke-miterlimit:10;" width="23.062" height="9.302"/>
				
					<rect x="191.794" y="331.575" style="fill:#263238;stroke:#263238;stroke-linecap:round;stroke-linejoin:round;stroke-miterlimit:10;" width="23.062" height="9.302"/>
				
					<rect x="201.793" y="320.879" style="fill:#263238;stroke:#263238;stroke-linecap:round;stroke-linejoin:round;stroke-miterlimit:10;" width="23.062" height="9.302"/>
				
					<rect x="211.793" y="310.182" style="fill:#263238;stroke:#263238;stroke-linecap:round;stroke-linejoin:round;stroke-miterlimit:10;" width="23.062" height="9.302"/>
				<g>
					<polygon style="fill:#FFFFFF;stroke:#263238;stroke-linecap:round;stroke-linejoin:round;stroke-miterlimit:10;" points="
						209.897,309.232 209.897,319.564 212.167,319.564 212.167,311.522 245.354,311.522 245.354,319.564 247.624,319.564 
						247.624,309.232 					"/>
					<polygon style="fill:#FFFFFF;stroke:#263238;stroke-linecap:round;stroke-linejoin:round;stroke-miterlimit:10;" points="
						199.987,319.775 199.987,330.107 202.256,330.107 202.256,322.065 235.444,322.065 235.444,330.107 237.713,330.107 
						237.713,319.775 					"/>
					<polygon style="fill:#FFFFFF;stroke:#263238;stroke-linecap:round;stroke-linejoin:round;stroke-miterlimit:10;" points="
						190.076,330.319 190.076,340.65 192.345,340.65 192.345,332.608 225.533,332.608 225.533,340.65 227.803,340.65 
						227.803,330.319 					"/>
					<polygon style="fill:#FFFFFF;stroke:#263238;stroke-linecap:round;stroke-linejoin:round;stroke-miterlimit:10;" points="
						180.165,340.862 180.165,351.193 182.435,351.193 182.435,343.151 215.622,343.151 215.622,351.193 217.892,351.193 
						217.892,340.862 					"/>
					<polygon style="fill:#FFFFFF;stroke:#263238;stroke-linecap:round;stroke-linejoin:round;stroke-miterlimit:10;" points="
						170.255,351.405 170.255,361.737 172.524,361.737 172.524,353.695 205.712,353.695 205.712,361.737 207.981,361.737 
						207.981,351.405 					"/>
					<g>
						<polygon style="fill:#FFFFFF;stroke:#263238;stroke-linecap:round;stroke-linejoin:round;stroke-miterlimit:10;" points="
							255.046,320.685 255.046,309.239 247.624,309.239 247.674,319.671 237.713,319.775 237.713,330.107 227.803,330.107 
							227.803,340.65 217.892,340.65 217.892,351.193 207.981,351.193 207.981,361.737 216.257,361.737 						"/>
					</g>
				</g>
			</g>
		</g>
		<g>
			<path style="fill:#92E3A9;" d="M56.291,216.261c13.028-15.306,33.319-23.062,53.518-20.035
				c19.757,2.961,38.877,17.993,43.074,40.623c0.327,1.762,0.568,3.581,0.229,5.265c-0.445,2.209-1.829,3.93-3.125,5.612
				c-6.768,8.782-12.22,18.819-16.119,29.67c-0.637,1.774-1.253,3.606-2.392,5.01c-2.199,2.711-5.864,3.313-9.254,3.855
				c-18.42,2.943-36.301,8.283-53.169,15.878c-0.962,0.433-1.961,0.882-3.044,0.81c-1.099-0.073-2.155-0.673-3.148-1.3
				c-17.306-10.923-23.928-31.855-21.47-51.395C43.04,237.139,48.449,225.474,56.291,216.261z"/>
			<g>
				<path style="fill:#FFFFFF;" d="M69.778,285.781c0,0-4.861,3.582-10.979,1.882C58.799,287.662,63.044,283.203,69.778,285.781z"/>
				<path style="fill:#FFFFFF;" d="M78.626,275.093c0,0-5.466,2.567-11.135-0.292C67.491,274.801,72.523,271.254,78.626,275.093z"/>
				<path style="fill:#FFFFFF;" d="M60.99,266.958c0,0-5.466,2.567-11.135-0.292C49.855,266.666,54.887,263.119,60.99,266.958z"/>
				<path style="fill:#FFFFFF;" d="M61.104,253.687c0,0-6.177,1.116-11.136-2.874C49.968,250.813,55.965,248.682,61.104,253.687z"/>
				<path style="fill:#FFFFFF;" d="M77.879,257.394c0,0-6.177,1.116-11.136-2.874C66.743,254.521,72.74,252.39,77.879,257.394z"/>
				<path style="fill:#FFFFFF;" d="M103.931,262.168c0,0-6.177,1.116-11.136-2.874C92.795,259.294,98.791,257.163,103.931,262.168z"
					/>
				<path style="fill:#FFFFFF;" d="M97.62,281.98c0,0-4.633,4.235-10.956,3.5C86.664,285.48,90.605,280.482,97.62,281.98z"/>
				<path style="fill:#FFFFFF;" d="M67.668,237.284c0,0-6.53-0.632-10.303-5.62C57.365,231.665,64.019,231.318,67.668,237.284z"/>
				<path style="fill:#FFFFFF;" d="M80.224,227.134c0,0-6.147-2.955-7.785-8.653C72.439,218.481,79.113,220.637,80.224,227.134z"/>
				<path style="fill:#FFFFFF;" d="M87.491,244.024c0,0-6.605-1.701-9.321-6.971C78.17,237.053,85.136,237.868,87.491,244.024z"/>
				<path style="fill:#FFFFFF;" d="M95.452,217.316c0,0-5.069-4.576-4.685-10.184C90.767,207.132,96.643,211.16,95.452,217.316z"/>
				<path style="fill:#FFFFFF;" d="M102.549,237.058c0,0-5.069-4.576-4.685-10.184C97.863,226.874,103.739,230.903,102.549,237.058z
					"/>
				<path style="fill:#FFFFFF;" d="M109.818,253.465c0,0-5.069-4.576-4.685-10.184C105.132,243.282,111.008,247.31,109.818,253.465z
					"/>
				<path style="fill:#FFFFFF;" d="M114.435,213.568c0,0-3.671-5.572-1.561-10.592C112.874,202.976,117.521,208.268,114.435,213.568
					z"/>
				<path style="fill:#FFFFFF;" d="M121.052,229.679c0,0-1.069-6.587,2.91-10.304C123.962,219.375,126.037,226.106,121.052,229.679z
					"/>
				<path style="fill:#FFFFFF;" d="M119.5,250.637c0,0-3.671-5.572-1.561-10.592C117.939,240.044,122.586,245.337,119.5,250.637z"/>
				<path style="fill:#FFFFFF;" d="M132.796,255.411c0,0,0.016-6.099,4.972-8.678C137.768,246.733,138.812,253.15,132.796,255.411z"
					/>
			</g>
		</g>
		<g>
			<path style="fill:#92E3A9;" d="M240.261,211.801c0,0,73.674-66.727,131.683-59.547C365.125,90.89,311.201,43.099,245.68,43.099
				c-69.366,0-125.734,53.566-126.968,120.093C146.022,162.802,202.258,167.924,240.261,211.801z"/>
			<g>
				<path style="fill:#FFFFFF;" d="M151.715,154.138c0,0-9.323,1.554-15.539-4.662C136.176,149.477,145.499,146.369,151.715,154.138
					z"/>
				<path style="fill:#FFFFFF;" d="M178.908,152.196c0,0-9.323,1.554-15.539-4.662C163.369,147.534,172.693,144.427,178.908,152.196
					z"/>
				<path style="fill:#FFFFFF;" d="M159.096,133.938c0,0-9.323,1.554-15.539-4.662C143.557,129.276,152.88,126.168,159.096,133.938z
					"/>
				<path style="fill:#FFFFFF;" d="M167.559,115.172c0,0-9.42-0.774-13.926-8.322C153.633,106.85,163.433,106.118,167.559,115.172z"
					/>
				<path style="fill:#FFFFFF;" d="M188.925,126.826c0,0-9.42-0.774-13.926-8.321C174.999,118.505,184.799,117.772,188.925,126.826z
					"/>
				<path style="fill:#FFFFFF;" d="M222.723,143.531c0,0-9.42-0.774-13.926-8.322C208.796,135.209,218.597,134.476,222.723,143.531z
					"/>
				<path style="fill:#FFFFFF;" d="M187.087,94.427c0,0-8.824-3.387-11.031-11.896C176.056,82.531,185.668,84.579,187.087,94.427z"
					/>
				<path style="fill:#FFFFFF;" d="M211.166,84.83c0,0-6.831-6.533-5.579-15.234C205.587,69.597,213.662,75.198,211.166,84.83z"/>
				<path style="fill:#FFFFFF;" d="M209.224,112.412c0,0-6.831-6.533-5.579-15.234C203.644,97.178,211.719,102.78,209.224,112.412z"
					/>
				<path style="fill:#FFFFFF;" d="M238.809,76.724c0,0-4.295-8.42-0.245-16.221C238.564,60.503,244.341,68.453,238.809,76.724z"/>
				<path style="fill:#FFFFFF;" d="M236.478,107.413c0,0-4.295-8.42-0.245-16.221C236.233,91.192,242.01,99.143,236.478,107.413z"/>
				<path style="fill:#FFFFFF;" d="M236.478,133.441c0,0-4.295-8.42-0.245-16.221C236.233,117.22,242.01,125.171,236.478,133.441z"
					/>
				<path style="fill:#FFFFFF;" d="M267.956,78.654c0,0-1.697-9.298,4.422-15.609C272.378,63.045,275.629,72.32,267.956,78.654z"/>
				<path style="fill:#FFFFFF;" d="M270.287,105.071c0,0-1.697-9.298,4.422-15.609C274.709,89.462,277.96,98.736,270.287,105.071z"
					/>
				<path style="fill:#FFFFFF;" d="M264.848,129.156c0,0-1.697-9.298,4.422-15.609C269.27,113.547,272.521,122.821,264.848,129.156z
					"/>
				<path style="fill:#FFFFFF;" d="M296.357,93.547c0,0,0.197-9.45,7.454-14.409C303.811,79.137,305.142,88.875,296.357,93.547z"/>
				<path style="fill:#FFFFFF;" d="M317.948,117.169c0,0,3.837-8.638,12.448-10.403
					C330.397,106.766,327.856,116.259,317.948,117.169z"/>
				<path style="fill:#FFFFFF;" d="M294.64,127.269c0,0,3.837-8.638,12.448-10.403C307.088,116.866,304.548,126.36,294.64,127.269z"
					/>
				<path style="fill:#FFFFFF;" d="M278.712,147.082c0,0,3.837-8.638,12.448-10.403C291.161,136.678,288.62,146.172,278.712,147.082
					z"/>
				<path style="fill:#FFFFFF;" d="M325.927,139.179c0,0,7.515-5.733,15.915-3.145C341.842,136.034,335.054,143.141,325.927,139.179
					z"/>
				<path style="fill:#FFFFFF;" d="M303.007,150.833c0,0,7.515-5.733,15.915-3.145C318.922,147.689,312.134,154.795,303.007,150.833
					z"/>
			</g>
		</g>
		<g>
			<polygon style="fill:#FFFFFF;stroke:#263238;stroke-linecap:round;stroke-linejoin:round;stroke-miterlimit:10;" points="
				160.279,292.715 140.111,220.413 203.66,186.545 219.643,294.998 			"/>
			<g>
				
					<line style="fill:none;stroke:#263238;stroke-linecap:round;stroke-linejoin:round;stroke-miterlimit:10;" x1="163.36" y1="254.197" x2="171.801" y2="283.668"/>
				
					<line style="fill:none;stroke:#263238;stroke-linecap:round;stroke-linejoin:round;stroke-miterlimit:10;" x1="154.054" y1="221.706" x2="161.881" y2="249.034"/>
				
					<line style="fill:none;stroke:#263238;stroke-linecap:round;stroke-linejoin:round;stroke-miterlimit:10;" x1="145.933" y1="226.218" x2="162.477" y2="285.473"/>
				
					<line style="fill:none;stroke:#263238;stroke-linecap:round;stroke-linejoin:round;stroke-miterlimit:10;" x1="162.477" y1="216.894" x2="163.379" y2="219.902"/>
				
					<line style="fill:none;stroke:#263238;stroke-linecap:round;stroke-linejoin:round;stroke-miterlimit:10;" x1="175.109" y1="262.313" x2="181.125" y2="285.774"/>
				
					<line style="fill:none;stroke:#263238;stroke-linecap:round;stroke-linejoin:round;stroke-miterlimit:10;" x1="189.748" y1="280.012" x2="190.75" y2="284.27"/>
				
					<line style="fill:none;stroke:#263238;stroke-linecap:round;stroke-linejoin:round;stroke-miterlimit:10;" x1="184.735" y1="258.703" x2="188.829" y2="276.105"/>
				
					<line style="fill:none;stroke:#263238;stroke-linecap:round;stroke-linejoin:round;stroke-miterlimit:10;" x1="173.305" y1="211.78" x2="174.508" y2="215.39"/>
				
					<line style="fill:none;stroke:#263238;stroke-linecap:round;stroke-linejoin:round;stroke-miterlimit:10;" x1="184.133" y1="206.065" x2="185.336" y2="212.081"/>
				
					<line style="fill:none;stroke:#263238;stroke-linecap:round;stroke-linejoin:round;stroke-miterlimit:10;" x1="196.766" y1="255.695" x2="201.88" y2="283.368"/>
				
					<line style="fill:none;stroke:#263238;stroke-linecap:round;stroke-linejoin:round;stroke-miterlimit:10;" x1="199.905" y1="216.322" x2="211.806" y2="282.766"/>
				
					<line style="fill:none;stroke:#263238;stroke-linecap:round;stroke-linejoin:round;stroke-miterlimit:10;" x1="197.368" y1="202.155" x2="199.312" y2="213.012"/>
			</g>
			
				<line style="fill:#263238;stroke:#263238;stroke-linecap:round;stroke-linejoin:round;stroke-miterlimit:10;" x1="141.447" y1="225.204" x2="204.635" y2="193.158"/>
			<g>
				<polygon style="fill:#FFFFFF;stroke:#263238;stroke-linecap:round;stroke-linejoin:round;stroke-miterlimit:10;" points="
					203.66,186.545 275.963,162.19 328.477,207.474 308.689,293.095 219.643,293.095 				"/>
				
					<line style="fill:none;stroke:#263238;stroke-linecap:round;stroke-linejoin:round;stroke-miterlimit:10;" x1="215.716" y1="193.432" x2="224.439" y2="277.653"/>
				
					<line style="fill:none;stroke:#263238;stroke-linecap:round;stroke-linejoin:round;stroke-miterlimit:10;" x1="236.169" y1="186.815" x2="236.169" y2="195.237"/>
				
					<line style="fill:none;stroke:#263238;stroke-linecap:round;stroke-linejoin:round;stroke-miterlimit:10;" x1="272.603" y1="201.836" x2="272.264" y2="206.667"/>
				
					<line style="fill:none;stroke:#263238;stroke-linecap:round;stroke-linejoin:round;stroke-miterlimit:10;" x1="274.67" y1="172.377" x2="272.837" y2="198.501"/>
				
					<line style="fill:none;stroke:#263238;stroke-linecap:round;stroke-linejoin:round;stroke-miterlimit:10;" x1="259.219" y1="186.492" x2="258.127" y2="206.366"/>
				
					<line style="fill:none;stroke:#263238;stroke-linecap:round;stroke-linejoin:round;stroke-miterlimit:10;" x1="259.631" y1="178.995" x2="259.431" y2="182.626"/>
				
					<line style="fill:none;stroke:#263238;stroke-linecap:round;stroke-linejoin:round;stroke-miterlimit:10;" x1="289.108" y1="188.018" x2="285.704" y2="209.574"/>
				
					<line style="fill:none;stroke:#263238;stroke-linecap:round;stroke-linejoin:round;stroke-miterlimit:10;" x1="302.643" y1="198.846" x2="301.44" y2="205.464"/>
				
					<line style="fill:none;stroke:#263238;stroke-linecap:round;stroke-linejoin:round;stroke-miterlimit:10;" x1="306.554" y1="248.176" x2="301.44" y2="286.676"/>
				
					<line style="fill:none;stroke:#263238;stroke-linecap:round;stroke-linejoin:round;stroke-miterlimit:10;" x1="289.38" y1="280.356" x2="288.807" y2="284.27"/>
				
					<line style="fill:none;stroke:#263238;stroke-linecap:round;stroke-linejoin:round;stroke-miterlimit:10;" x1="294.221" y1="247.273" x2="290.009" y2="276.061"/>
			</g>
			<polygon style="fill:#263238;stroke:#263238;stroke-linecap:round;stroke-linejoin:round;stroke-miterlimit:10;" points="
				203.66,186.545 204.651,193.15 205.174,192.885 274.811,168.365 326.727,215.046 328.477,207.474 275.963,162.19 			"/>
			<g>
				<polygon style="fill:#FFFFFF;stroke:#263238;stroke-linecap:round;stroke-linejoin:round;stroke-miterlimit:10;" points="
					285.704,209.574 249.005,209.574 249.005,290.357 279.886,290.357 				"/>
				<polyline style="fill:none;stroke:#263238;stroke-linecap:round;stroke-linejoin:round;stroke-miterlimit:10;" points="
					255.721,212.683 282.792,212.683 278.581,284.571 				"/>
			</g>
			<polygon style="fill:#FFFFFF;stroke:#263238;stroke-linecap:round;stroke-linejoin:round;stroke-miterlimit:10;" points="
				203.66,186.545 200.118,182.133 275.51,156.127 337.181,206.194 332.356,210.783 275.963,162.19 			"/>
			<polygon style="fill:#FFFFFF;stroke:#263238;stroke-linecap:round;stroke-linejoin:round;stroke-miterlimit:10;" points="
				200.118,182.133 132.607,218.385 134.905,223.719 203.66,186.545 			"/>
			<g>
				<polygon style="fill:#FFFFFF;stroke:#263238;stroke-linecap:round;stroke-linejoin:round;stroke-miterlimit:10;" points="
					308.372,242.693 286.442,242.693 290.337,209.574 312.267,209.574 				"/>
				<polygon style="fill:#FFFFFF;stroke:#263238;stroke-linecap:round;stroke-linejoin:round;stroke-miterlimit:10;" points="
					306.988,240.9 288.247,240.9 291.72,211.367 310.462,211.367 				"/>
				<polygon style="fill:#FFFFFF;stroke:#263238;stroke-linecap:round;stroke-linejoin:round;stroke-miterlimit:10;" points="
					309.068,223.224 309.252,221.658 300.664,221.658 301.875,211.367 300.308,211.367 299.098,221.658 290.51,221.658 
					290.326,223.224 298.913,223.224 297.94,231.504 289.352,231.504 289.168,233.07 297.755,233.07 296.834,240.9 298.401,240.9 
					299.322,233.07 307.909,233.07 308.094,231.504 299.506,231.504 300.48,223.224 				"/>
			</g>
			<g>
				<polygon style="fill:#FFFFFF;stroke:#263238;stroke-linecap:round;stroke-linejoin:round;stroke-miterlimit:10;" points="
					197.071,249.92 172.823,258.667 162.533,222.906 186.781,214.159 				"/>
				<polygon style="fill:#FFFFFF;stroke:#263238;stroke-linecap:round;stroke-linejoin:round;stroke-miterlimit:10;" points="
					194.751,248.62 174.028,256.095 164.853,224.206 185.576,216.731 				"/>
				<polygon style="fill:#FFFFFF;stroke:#263238;stroke-linecap:round;stroke-linejoin:round;stroke-miterlimit:10;" points="
					189.259,229.535 188.773,227.843 179.277,231.268 176.08,220.156 174.348,220.781 177.546,231.893 168.05,235.318 
					168.537,237.009 178.032,233.584 180.604,242.524 171.109,245.949 171.596,247.641 181.091,244.216 183.524,252.67 
					185.256,252.045 182.823,243.591 192.318,240.166 191.832,238.475 182.337,241.9 179.764,232.959 				"/>
			</g>
			<polyline style="fill:#263238;stroke:#263238;stroke-linecap:round;stroke-linejoin:round;stroke-miterlimit:10;" points="
				204.635,193.158 203.66,186.545 140.111,220.413 141.447,225.204 			"/>
		</g>
		<path style="fill:#263238;stroke:#263238;stroke-linecap:round;stroke-linejoin:round;stroke-miterlimit:10;" d="M136.519,292.664
			c6.042,3.399,41.164,23.792,49.472,29.834c8.308,6.042,32.1,33.233,35.877,38.52c3.776,5.287,10.574,18.127,10.574,18.127
			s-2.644,34.744-5.665,40.786c-3.021,6.042-4.154,6.798-8.686,9.063c-4.532,2.266-15.861,3.777-15.861,3.777l-3.725,0.931h92.102
			c-2.399-2.223-8.184-8.587-12.847-21.702c-6.042-16.994-10.197-45.696-12.085-65.711c-1.888-20.015-6.798-45.318-10.197-72.131
			s-1.511-76.663-1.511-86.859s3.399-17.372,13.218-32.855c9.819-15.484,24.547-50.605,24.547-50.605s-9.064,16.617-16.994,30.59
			c-7.931,13.973-21.526,26.813-21.526,26.813s0.755-15.861,3.777-34.744c3.021-18.882,3.021-26.813,3.021-26.813
			s-4.532,11.707-6.798,24.547c-2.266,12.84-4.909,36.254-4.909,41.541c0,5.287-5.287,29.457-7.175,34.744
			c-0.019,0.053-0.038,0.105-0.056,0.158c-1.008,2.82-4.857,3.162-6.346,0.563c-6.29-10.985-18.723-33.52-23.432-47.926
			c-6.42-19.638-10.952-28.701-10.952-28.701s4.91,30.589,15.106,51.738c10.196,21.148,18.882,53.626,20.015,62.69
			s1.133,63.445,1.511,71.753c0.272,5.987-0.632,22.561-1.159,31.357c-0.141,2.347-2.873,3.554-4.698,2.072
			c-6.343-5.151-18.967-15.136-33.418-25.121c-20.771-14.351-47.961-28.324-59.669-35.121
			c-11.707-6.798-16.616-21.526-20.015-29.457c-3.399-7.931-5.287-13.595-5.287-13.595s2.644,17.75,5.665,23.792
			c1.289,2.577,2.234,5.017,2.894,6.968c0.659,1.949-1.008,3.887-3.031,3.514c-3.121-0.576-7.845-1.374-13.836-2.173
			c-11.329-1.511-24.547-5.287-24.547-5.287s13.595,8.686,24.547,11.707C115.371,282.467,130.477,289.265,136.519,292.664z"/>
		<g>
			<path style="fill:#92E3A9;" d="M424.765,170.355c-17.54-18.549-43.017-27.949-67.149-24.28
				c-23.604,3.588-45.056,21.806-47.553,49.23c-0.194,2.135-0.279,4.34,0.325,6.38c0.792,2.677,2.666,4.763,4.43,6.801
				c9.206,10.643,16.962,22.806,22.928,35.956c0.975,2.149,1.931,4.37,3.471,6.071c2.975,3.286,7.486,4.015,11.656,4.672
				c22.659,3.567,44.94,10.039,66.25,19.242c1.216,0.525,2.478,1.068,3.781,0.982c1.323-0.088,2.535-0.816,3.667-1.576
				c19.723-13.238,25.354-38.604,20.14-62.284C443.211,195.657,435.322,181.52,424.765,170.355z"/>
			<g>
				<path style="fill:#FFFFFF;" d="M321.094,201.98c0,0-6.473-2.234-8.82-9.041C312.273,192.939,319.168,194.034,321.094,201.98z"/>
				<path style="fill:#FFFFFF;" d="M336.767,203.366c0,0-5.914-3.452-6.892-10.586C329.876,192.781,336.425,195.197,336.767,203.366
					z"/>
				<path style="fill:#FFFFFF;" d="M333.016,181.663c0,0-5.914-3.452-6.891-10.586C326.125,171.078,332.675,173.494,333.016,181.663
					z"/>
				<path style="fill:#FFFFFF;" d="M345.482,173.232c0,0-5.017-5.05-4.482-12.248C341.001,160.984,346.849,165.213,345.482,173.232z
					"/>
				<path style="fill:#FFFFFF;" d="M352.813,191.282c0,0-5.017-5.05-4.482-12.248C348.332,179.033,354.18,183.262,352.813,191.282z"
					/>
				<path style="fill:#FFFFFF;" d="M365.118,218.68c0,0-5.017-5.05-4.482-12.248C360.636,206.432,366.484,210.661,365.118,218.68z"
					/>
				<path style="fill:#FFFFFF;" d="M342.557,225.534c0,0-6.936-1.602-10.317-7.979C332.24,217.555,339.442,218.019,342.557,225.534z
					"/>
				<path style="fill:#FFFFFF;" d="M365.022,168.807c0,0-3.611-6.504-1.381-13.236C363.641,155.571,368.246,161.562,365.022,168.807
					z"/>
				<path style="fill:#FFFFFF;" d="M382.58,174.002c0,0-1.196-7.641,3.071-12.837C385.651,161.165,387.932,168.785,382.58,174.002z"
					/>
				<path style="fill:#FFFFFF;" d="M371.483,191.654c0,0-2.661-7.262,0.512-13.189C371.995,178.466,375.716,185.495,371.483,191.654
					z"/>
				<path style="fill:#FFFFFF;" d="M401.546,181.905c0,0,1.012-7.678,6.495-10.927C408.041,170.978,408.06,179.056,401.546,181.905z
					"/>
				<path style="fill:#FFFFFF;" d="M387.676,201.234c0,0,1.012-7.678,6.495-10.927C394.171,190.306,394.19,198.385,387.676,201.234z
					"/>
				<path style="fill:#FFFFFF;" d="M377.032,218.578c0,0,1.012-7.678,6.495-10.927C383.526,207.65,383.546,215.729,377.032,218.578z
					"/>
				<path style="fill:#FFFFFF;" d="M417.259,197.22c0,0,2.842-7.013,8.887-8.273C426.145,188.947,424.193,196.692,417.259,197.22z"
					/>
				<path style="fill:#FFFFFF;" d="M406.472,213.764c0,0,5.462-5.236,11.494-3.912C417.966,209.852,413.015,216.12,406.472,213.764z
					"/>
				<path style="fill:#FFFFFF;" d="M385.902,225.799c0,0,2.842-7.013,8.887-8.273C394.789,217.526,392.837,225.271,385.902,225.799z
					"/>
				<path style="fill:#FFFFFF;" d="M427.248,220.814c0,0,3.976-6.202,10.113-6.014C437.362,214.8,434.133,221.929,427.248,220.814z"
					/>
				<path style="fill:#FFFFFF;" d="M429.813,246.947c0,0,5.705-3.909,11.302-0.941C441.115,246.006,435.794,251.11,429.813,246.947z
					"/>
				<path style="fill:#FFFFFF;" d="M414.721,238.434c0,0,5.705-3.909,11.302-0.941C426.024,237.493,420.703,242.597,414.721,238.434
					z"/>
				<path style="fill:#FFFFFF;" d="M389.999,241.287c0,0,5.705-3.909,11.302-0.941C401.301,240.346,395.981,245.45,389.999,241.287z
					"/>
				<path style="fill:#FFFFFF;" d="M409.676,261.429c0,0,6.599-0.203,10.297,5.565C419.973,266.994,413.224,268.462,409.676,261.429
					z"/>
				<path style="fill:#FFFFFF;" d="M375.387,250.561c0,0,6.599-0.203,10.297,5.565C385.684,256.125,378.934,257.594,375.387,250.561
					z"/>
			</g>
		</g>
		<g>
			<g>
				
					<rect x="155.332" y="290.432" style="fill:#FFFFFF;stroke:#263238;stroke-linecap:round;stroke-linejoin:round;stroke-miterlimit:10;" width="201.658" height="7.827"/>
				
					<rect x="155.332" y="290.432" style="fill:#FFFFFF;stroke:#263238;stroke-linecap:round;stroke-linejoin:round;stroke-miterlimit:10;" width="109.595" height="7.827"/>
			</g>
			
				<rect x="266.012" y="255.448" style="fill:#FFFFFF;stroke:#263238;stroke-linecap:round;stroke-linejoin:round;stroke-miterlimit:10;" width="4.028" height="34.909"/>
			
				<rect x="279.886" y="255.448" style="fill:#FFFFFF;stroke:#263238;stroke-linecap:round;stroke-linejoin:round;stroke-miterlimit:10;" width="4.028" height="34.909"/>
			
				<rect x="293.76" y="255.448" style="fill:#FFFFFF;stroke:#263238;stroke-linecap:round;stroke-linejoin:round;stroke-miterlimit:10;" width="4.028" height="34.909"/>
			
				<rect x="307.634" y="255.448" style="fill:#FFFFFF;stroke:#263238;stroke-linecap:round;stroke-linejoin:round;stroke-miterlimit:10;" width="4.028" height="34.909"/>
			
				<rect x="321.508" y="255.448" style="fill:#FFFFFF;stroke:#263238;stroke-linecap:round;stroke-linejoin:round;stroke-miterlimit:10;" width="4.028" height="34.909"/>
			
				<rect x="335.382" y="255.448" style="fill:#FFFFFF;stroke:#263238;stroke-linecap:round;stroke-linejoin:round;stroke-miterlimit:10;" width="4.028" height="34.909"/>
			
				<rect x="350.425" y="255.448" style="fill:#FFFFFF;stroke:#263238;stroke-linecap:round;stroke-linejoin:round;stroke-miterlimit:10;" width="4.028" height="34.909"/>
			
				<rect x="253.033" y="255.448" style="fill:#FFFFFF;stroke:#263238;stroke-linecap:round;stroke-linejoin:round;stroke-miterlimit:10;" width="4.028" height="34.909"/>
			
				<rect x="240.054" y="255.448" style="fill:#FFFFFF;stroke:#263238;stroke-linecap:round;stroke-linejoin:round;stroke-miterlimit:10;" width="4.028" height="34.909"/>
			
				<rect x="227.075" y="255.448" style="fill:#FFFFFF;stroke:#263238;stroke-linecap:round;stroke-linejoin:round;stroke-miterlimit:10;" width="4.028" height="34.909"/>
			
				<rect x="214.096" y="254.777" style="fill:#FFFFFF;stroke:#263238;stroke-linecap:round;stroke-linejoin:round;stroke-miterlimit:10;" width="144.032" height="3.782"/>
			
				<rect x="214.096" y="254.777" style="fill:#FFFFFF;stroke:#263238;stroke-linecap:round;stroke-linejoin:round;stroke-miterlimit:10;" width="54.378" height="3.782"/>
		</g>
		
			<rect x="127.062" y="328.02" style="fill:#263238;stroke:#263238;stroke-linecap:round;stroke-linejoin:round;stroke-miterlimit:10;" width="54.399" height="5.59"/>
		<g>
			<g>
				
					<rect x="255.51" y="425.755" style="fill:#263238;stroke:#263238;stroke-linecap:round;stroke-linejoin:round;stroke-miterlimit:10;" width="21.394" height="7.948"/>
				
					<rect x="245.046" y="415.523" style="fill:#263238;stroke:#263238;stroke-linecap:round;stroke-linejoin:round;stroke-miterlimit:10;" width="21.394" height="9.302"/>
				
					<rect x="234.582" y="405.291" style="fill:#263238;stroke:#263238;stroke-linecap:round;stroke-linejoin:round;stroke-miterlimit:10;" width="21.394" height="9.302"/>
				
					<rect x="224.117" y="395.059" style="fill:#263238;stroke:#263238;stroke-linecap:round;stroke-linejoin:round;stroke-miterlimit:10;" width="21.394" height="9.302"/>
				
					<rect x="213.653" y="384.827" style="fill:#263238;stroke:#263238;stroke-linecap:round;stroke-linejoin:round;stroke-miterlimit:10;" width="21.394" height="9.302"/>
				
					<rect x="203.189" y="374.596" style="fill:#263238;stroke:#263238;stroke-linecap:round;stroke-linejoin:round;stroke-miterlimit:10;" width="23.062" height="9.302"/>
				
					<rect x="193.654" y="363.666" style="fill:#263238;stroke:#263238;stroke-linecap:round;stroke-linejoin:round;stroke-miterlimit:10;" width="23.062" height="9.302"/>
				<polygon style="fill:#FFFFFF;stroke:#263238;stroke-linecap:round;stroke-linejoin:round;stroke-miterlimit:10;" points="
					217.642,361.781 217.642,372.112 215.373,372.112 215.373,364.07 182.185,364.07 182.185,372.112 179.915,372.112 
					179.915,361.781 				"/>
				<polygon style="fill:#FFFFFF;stroke:#263238;stroke-linecap:round;stroke-linejoin:round;stroke-miterlimit:10;" points="
					227.553,372.324 227.553,382.656 225.283,382.656 225.283,374.614 192.096,374.614 192.096,382.656 189.826,382.656 
					189.826,372.324 				"/>
				<polygon style="fill:#FFFFFF;stroke:#263238;stroke-linecap:round;stroke-linejoin:round;stroke-miterlimit:10;" points="
					237.464,382.867 237.464,393.199 235.194,393.199 235.194,385.157 202.007,385.157 202.007,393.199 199.737,393.199 
					199.737,382.867 				"/>
				<polygon style="fill:#FFFFFF;stroke:#263238;stroke-linecap:round;stroke-linejoin:round;stroke-miterlimit:10;" points="
					247.374,393.411 247.374,403.742 245.105,403.742 245.105,395.7 211.917,395.7 211.917,403.742 209.648,403.742 
					209.648,393.411 				"/>
				<polygon style="fill:#FFFFFF;stroke:#263238;stroke-linecap:round;stroke-linejoin:round;stroke-miterlimit:10;" points="
					257.285,403.954 257.285,414.285 255.015,414.285 255.015,406.244 221.828,406.244 221.828,414.285 219.558,414.285 
					219.558,403.954 				"/>
				<polygon style="fill:#FFFFFF;stroke:#263238;stroke-linecap:round;stroke-linejoin:round;stroke-miterlimit:10;" points="
					268.187,414.223 268.187,424.555 265.917,424.555 265.917,416.513 232.73,416.513 232.73,424.555 230.46,424.555 
					230.46,414.223 				"/>
				<polygon style="fill:#FFFFFF;stroke:#263238;stroke-linecap:round;stroke-linejoin:round;stroke-miterlimit:10;" points="
					242.64,433.703 242.64,427.056 275.828,427.056 275.828,433.703 278.098,433.703 278.098,424.766 240.371,424.766 
					240.371,433.703 				"/>
				<polygon style="fill:#FFFFFF;stroke:#263238;stroke-linecap:round;stroke-linejoin:round;stroke-miterlimit:10;" points="
					229.332,433.703 240.371,433.703 240.371,424.766 230.46,424.555 230.46,414.223 219.558,414.285 219.558,403.742 
					209.648,403.742 209.648,393.199 199.737,393.199 199.737,382.656 189.826,382.656 189.826,372.324 179.866,372.22 
					179.915,361.787 172.494,361.787 172.494,373.234 211.283,414.285 				"/>
				
					<rect x="126.915" y="361.787" style="fill:#FFFFFF;stroke:#263238;stroke-linecap:round;stroke-linejoin:round;stroke-miterlimit:10;" width="45.579" height="16.635"/>
			</g>
			<g>
				
					<rect x="127.062" y="328.02" style="fill:#FFFFFF;stroke:#263238;stroke-linecap:round;stroke-linejoin:round;stroke-miterlimit:10;" width="49.525" height="5.59"/>
				
					<rect x="127.062" y="328.02" style="fill:#FFFFFF;stroke:#263238;stroke-linecap:round;stroke-linejoin:round;stroke-miterlimit:10;" width="4.768" height="105.683"/>
				
					<rect x="171.71" y="328.02" style="fill:#FFFFFF;stroke:#263238;stroke-linecap:round;stroke-linejoin:round;stroke-miterlimit:10;" width="4.768" height="105.683"/>
			</g>
			<g>
				<g>
					<polygon style="fill:#FFFFFF;stroke:#263238;stroke-linecap:round;stroke-linejoin:round;stroke-miterlimit:10;" points="
						176.577,328.036 240.399,393.946 240.399,399.809 176.577,333.9 					"/>
				</g>
				<g>
					<polygon style="fill:#FFFFFF;stroke:#263238;stroke-linecap:round;stroke-linejoin:round;stroke-miterlimit:10;" points="
						176.577,350.398 240.399,416.308 240.399,422.171 176.577,356.262 					"/>
				</g>
				
					<rect x="235.659" y="388.781" style="fill:#FFFFFF;stroke:#263238;stroke-linecap:round;stroke-linejoin:round;stroke-miterlimit:10;" width="4.768" height="44.922"/>
			</g>
		</g>
		<path style="fill:#263238;stroke:#263238;stroke-linecap:round;stroke-linejoin:round;stroke-miterlimit:10;" d="M262.147,362.138
			l0.507,2.279c0,0,0.755-1.888,3.021-8.308c2.266-6.42,17.372-27.191,32.855-41.919s39.653-40.408,54.004-60.424
			c14.351-20.015,37.01-57.78,37.01-57.78s-8.686,12.462-22.281,29.079c-3.805,4.65-9.269,11.077-15.584,18.268
			c-1.494,1.701-4.27,0.254-3.72-1.942c1.412-5.647,2.898-11.991,3.821-17.836c2.266-14.351,2.644-33.988,2.644-33.988
			s-4.909,26.435-8.686,43.052c-3.776,16.617-14.351,32.478-14.351,32.478l1.273-0.711c-11.895,12.78-24.098,25.106-32.996,32.434
			c-19.26,15.861-45.318,30.212-45.318,30.212"/>
	</g>
</g>
<g id="Floor">
	
		<line style="fill:none;stroke:#263238;stroke-linecap:round;stroke-linejoin:round;stroke-miterlimit:10;" x1="19.109" y1="433.703" x2="474.341" y2="433.703"/>
</g>
</svg>
