<?xml version="1.0" encoding="utf-8"?>
<!-- Generator: Adobe Illustrator 27.5.0, SVG Export Plug-In . SVG Version: 6.00 Build 0)  -->
<svg version="1.1" xmlns="http://www.w3.org/2000/svg" xmlns:xlink="http://www.w3.org/1999/xlink" x="0px" y="0px"
	 viewBox="0 0 500 500" style="enable-background:new 0 0 500 500;" xml:space="preserve">
<g id="Background_Simple">
	<g>
		<path style="fill:#92E3A9;" d="M455.693,264.569c16.637-106.421-72.142-213.687-188.71-227.009
			c-1.451-0.166-2.904-0.321-4.358-0.466c-81.45-8.09-155.901,54.127-177.189,101.581c-21.288,47.454-76.999,92.597-56.349,180.552
			c20.649,87.955,76.747,134.819,208.273,148.689c131.526,13.87,155.793-23.747,190.708-105.923
			C440.167,333.517,450.229,299.517,455.693,264.569z"/>
		<path style="opacity:0.7;fill:#FFFFFF;" d="M455.693,264.569c16.637-106.421-72.142-213.687-188.71-227.009
			c-1.451-0.166-2.904-0.321-4.358-0.466c-81.45-8.09-155.901,54.127-177.189,101.581c-21.288,47.454-76.999,92.597-56.349,180.552
			c20.649,87.955,76.747,134.819,208.273,148.689c131.526,13.87,155.793-23.747,190.708-105.923
			C440.167,333.517,450.229,299.517,455.693,264.569z"/>
	</g>
</g>
<g id="Floor">
	
		<line style="fill:none;stroke:#263238;stroke-linecap:round;stroke-linejoin:round;stroke-miterlimit:10;" x1="23.171" y1="471.622" x2="472.137" y2="471.622"/>
</g>
<g id="Trees">
	<g>
		<path style="fill:#92E3A9;" d="M484.563,132.423c24.28,123.117-52.002,71.838-116.149,71.838s-145.432,41.753-116.15-71.838
			C268.996,67.519,304.266,26.94,368.414,26.94S474.324,80.504,484.563,132.423z"/>
		<path style="opacity:0.3;fill:#FFFFFF;" d="M484.563,132.423c24.28,123.117-52.002,71.838-116.149,71.838
			s-145.432,41.753-116.15-71.838C268.996,67.519,304.266,26.94,368.414,26.94S474.324,80.504,484.563,132.423z"/>
		<polygon style="fill:#A1A1A1;" points="331.804,193.085 363.088,216.96 359.884,301.389 378.785,301.389 375.154,177.807 
			419.893,128.599 374.613,167.292 372.967,94.023 368.027,144.241 356.384,135.796 330.981,99.785 347.31,132.518 294.757,111.311 
			348.316,141.576 365.943,153.791 363.911,207.081 		"/>
		<g>
			<path style="fill:#FFFFFF;" d="M349.45,73.478c0,0-1.713,7.933,1.847,14.514c3.56,6.581,8.428,10.954,8.428,10.954
				S363.26,86.424,349.45,73.478z"/>
			<path style="fill:#FFFFFF;" d="M282.954,143.545c0,0,6.117,5.333,13.599,5.397c7.482,0.063,13.662-2.085,13.662-2.085
				S300.962,137.711,282.954,143.545z"/>
			<path style="fill:#FFFFFF;" d="M273.637,176.421c0,0,7.424,3.278,14.588,1.118c7.164-2.16,12.428-6.046,12.428-6.046
				S289.102,165.505,273.637,176.421z"/>
			<path style="fill:#FFFFFF;" d="M317.979,179.844c0,0,8.115-0.108,13.731-5.053c5.616-4.945,8.786-10.669,8.786-10.669
				S327.501,163.484,317.979,179.844z"/>
			<path style="fill:#FFFFFF;" d="M299.271,81.681c0,0,1.841,7.904,7.872,12.333c6.031,4.429,12.3,6.302,12.3,6.302
				S317.288,87.485,299.271,81.681z"/>
			<path style="fill:#FFFFFF;" d="M431.576,75.822c0,0-8.036,1.138-12.977,6.757c-4.942,5.618-7.359,11.698-7.359,11.698
				S424.21,93.259,431.576,75.822z"/>
			<path style="fill:#FFFFFF;" d="M459.419,117.577c0,0-7.934-1.707-14.512,1.859c-6.578,3.566-10.946,8.437-10.946,8.437
				S446.485,131.398,459.419,117.577z"/>
			<path style="fill:#FFFFFF;" d="M456.696,165.008c0,0-5.721-5.757-13.179-6.354c-7.458-0.597-13.776,1.105-13.776,1.105
				S438.318,169.542,456.696,165.008z"/>
			<path style="fill:#FFFFFF;" d="M425.622,190.459c0,0-3.293-7.417-10.049-10.633c-6.756-3.216-13.266-3.878-13.266-3.878
				S406.835,188.145,425.622,190.459z"/>
			<path style="fill:#FFFFFF;" d="M409.268,113.498c0,0-8.035,1.138-12.977,6.757s-7.359,11.699-7.359,11.699
				S401.902,130.935,409.268,113.498z"/>
			<path style="fill:#FFFFFF;" d="M277.615,103.035c0,0,3.576,7.285,10.451,10.239c6.875,2.954,13.405,3.364,13.405,3.364
				S296.477,104.624,277.615,103.035z"/>
			<path style="fill:#FFFFFF;" d="M392.194,64.641c0,0-6.505,4.853-8.147,12.152c-1.642,7.3-0.848,13.795-0.848,13.795
				S394.092,83.475,392.194,64.641z"/>
			<path style="fill:#FFFFFF;" d="M367.658,41.682c0,0-3.693,7.227-1.942,14.501c1.751,7.275,5.332,12.75,5.332,12.75
				S377.68,57.74,367.658,41.682z"/>
			<path style="fill:#FFFFFF;" d="M314.548,49.4c0,0,0,8.116,4.87,13.797c4.869,5.681,10.55,8.927,10.55,8.927
				S330.78,59.139,314.548,49.4z"/>
		</g>
	</g>
	<g>
		<path style="fill:#92E3A9;" d="M226.322,182.229c17.123,86.826-36.673,50.662-81.912,50.662
			c-45.239,0-102.564,29.446-81.912-50.662c11.8-45.773,36.673-74.39,81.912-74.39C189.649,107.839,219.101,145.614,226.322,182.229
			z"/>
		<path style="opacity:0.3;fill:#FFFFFF;" d="M226.322,182.229c17.123,86.826-36.673,50.662-81.912,50.662
			c-45.239,0-102.564,29.446-81.912-50.662c11.8-45.773,36.673-74.39,81.912-74.39C189.649,107.839,219.101,145.614,226.322,182.229
			z"/>
		<polygon style="fill:#A1A1A1;" points="118.592,225.01 140.654,241.847 138.394,301.389 151.724,301.389 149.164,214.235 
			180.715,179.532 148.782,206.82 147.621,155.148 144.137,190.563 135.926,184.607 118.011,159.212 129.527,182.296 92.465,167.34 
			130.237,188.684 142.667,197.298 141.235,234.88 		"/>
		<g>
			<path style="fill:#FFFFFF;" d="M131.036,140.659c0,0-1.208,5.594,1.302,10.236c2.511,4.641,5.943,7.725,5.943,7.725
				S140.775,149.789,131.036,140.659z"/>
			<path style="fill:#FFFFFF;" d="M84.141,190.073c0,0,4.314,3.761,9.591,3.806c5.277,0.045,9.635-1.471,9.635-1.471
				S96.841,185.958,84.141,190.073z"/>
			<path style="fill:#FFFFFF;" d="M77.571,213.257c0,0,5.236,2.312,10.288,0.788c5.052-1.523,8.765-4.264,8.765-4.264
				S88.477,205.559,77.571,213.257z"/>
			<path style="fill:#FFFFFF;" d="M108.842,215.672c0,0,5.723-0.076,9.683-3.563c3.96-3.487,6.196-7.524,6.196-7.524
				S115.557,204.134,108.842,215.672z"/>
			<path style="fill:#FFFFFF;" d="M95.648,146.444c0,0,1.298,5.574,5.551,8.697c4.253,3.123,8.674,4.444,8.674,4.444
				S108.355,150.537,95.648,146.444z"/>
			<path style="fill:#FFFFFF;" d="M188.954,142.312c0,0-5.667,0.803-9.152,4.765c-3.485,3.962-5.19,8.25-5.19,8.25
				S183.759,154.609,188.954,142.312z"/>
			<path style="fill:#FFFFFF;" d="M208.59,171.759c0,0-5.596-1.204-10.234,1.311c-4.639,2.515-7.72,5.95-7.72,5.95
				S199.468,181.506,208.59,171.759z"/>
			<path style="fill:#FFFFFF;" d="M206.669,205.209c0,0-4.035-4.06-9.294-4.481c-5.26-0.421-9.716,0.779-9.716,0.779
				S193.709,208.406,206.669,205.209z"/>
			<path style="fill:#FFFFFF;" d="M184.755,223.157c0,0-2.323-5.231-7.087-7.499s-9.355-2.735-9.355-2.735
				S171.506,221.526,184.755,223.157z"/>
			<path style="fill:#FFFFFF;" d="M173.222,168.882c0,0-5.667,0.803-9.152,4.765c-3.485,3.962-5.19,8.25-5.19,8.25
				S168.027,181.179,173.222,168.882z"/>
			<path style="fill:#FFFFFF;" d="M80.376,161.503c0,0,2.522,5.138,7.37,7.221c4.848,2.083,9.453,2.373,9.453,2.373
				S93.678,162.624,80.376,161.503z"/>
			<path style="fill:#FFFFFF;" d="M161.18,134.427c0,0-4.588,3.422-5.746,8.57c-1.158,5.148-0.598,9.728-0.598,9.728
				S162.52,147.709,161.18,134.427z"/>
			<path style="fill:#FFFFFF;" d="M143.877,118.235c0,0-2.604,5.097-1.37,10.227c1.235,5.13,3.76,8.992,3.76,8.992
				S150.945,129.56,143.877,118.235z"/>
			<path style="fill:#FFFFFF;" d="M106.423,123.678c0,0,0,5.723,3.434,9.73c3.434,4.006,7.44,6.296,7.44,6.296
				S117.869,130.547,106.423,123.678z"/>
		</g>
	</g>
</g>
<g id="Fence">
	<g>
		
			<line style="fill:none;stroke:#263238;stroke-linecap:round;stroke-linejoin:round;stroke-miterlimit:10;" x1="453.754" y1="301.531" x2="483.62" y2="301.531"/>
		
			<line style="fill:none;stroke:#263238;stroke-linecap:round;stroke-linejoin:round;stroke-miterlimit:10;" x1="75.58" y1="301.531" x2="448.687" y2="301.531"/>
		
			<line style="fill:none;stroke:#263238;stroke-linecap:round;stroke-linejoin:round;stroke-miterlimit:10;" x1="23.171" y1="301.531" x2="66.829" y2="301.531"/>
		
			<line style="fill:none;stroke:#263238;stroke-linecap:round;stroke-linejoin:round;stroke-miterlimit:10;" x1="40.637" y1="426.857" x2="40.637" y2="457.107"/>
		
			<line style="fill:none;stroke:#263238;stroke-linecap:round;stroke-linejoin:round;stroke-miterlimit:10;" x1="40.637" y1="301.346" x2="40.637" y2="419.947"/>
		
			<line style="fill:none;stroke:#263238;stroke-linecap:round;stroke-linejoin:round;stroke-miterlimit:10;" x1="88.124" y1="301.346" x2="88.124" y2="457.107"/>
		
			<line style="fill:none;stroke:#263238;stroke-linecap:round;stroke-linejoin:round;stroke-miterlimit:10;" x1="135.61" y1="301.346" x2="135.61" y2="457.107"/>
		
			<line style="fill:none;stroke:#263238;stroke-linecap:round;stroke-linejoin:round;stroke-miterlimit:10;" x1="183.097" y1="301.346" x2="183.097" y2="457.107"/>
		
			<line style="fill:none;stroke:#263238;stroke-linecap:round;stroke-linejoin:round;stroke-miterlimit:10;" x1="230.584" y1="301.346" x2="230.584" y2="457.107"/>
		
			<line style="fill:none;stroke:#263238;stroke-linecap:round;stroke-linejoin:round;stroke-miterlimit:10;" x1="278.07" y1="301.346" x2="278.07" y2="457.107"/>
		
			<line style="fill:none;stroke:#263238;stroke-linecap:round;stroke-linejoin:round;stroke-miterlimit:10;" x1="325.557" y1="301.346" x2="325.557" y2="457.107"/>
		
			<line style="fill:none;stroke:#263238;stroke-linecap:round;stroke-linejoin:round;stroke-miterlimit:10;" x1="373.044" y1="301.346" x2="373.044" y2="457.107"/>
		
			<line style="fill:none;stroke:#263238;stroke-linecap:round;stroke-linejoin:round;stroke-miterlimit:10;" x1="420.53" y1="301.346" x2="420.53" y2="457.107"/>
		
			<line style="fill:none;stroke:#263238;stroke-linecap:round;stroke-linejoin:round;stroke-miterlimit:10;" x1="468.017" y1="408.432" x2="468.017" y2="457.107"/>
		
			<line style="fill:none;stroke:#263238;stroke-linecap:round;stroke-linejoin:round;stroke-miterlimit:10;" x1="468.017" y1="301.346" x2="468.017" y2="403.365"/>
	</g>
</g>
<g id="Clouds">
	<path style="fill:none;stroke:#263238;stroke-linecap:round;stroke-linejoin:round;stroke-miterlimit:10;" d="M227.959,53.391
		c0,0-19.443-29.975-34.836-28.355c-15.393,1.62-14.583,12.962-20.254,21.874c-5.671,8.912-14.582-4.051-23.494-0.81
		c-8.911,3.241-5.671,8.912-11.342,11.342c-5.671,2.43-18.633-10.532-23.494-6.481c-4.861,4.051-6.481,10.532-9.722,12.152
		c-3.241,1.62-9.722-4.051-12.962,0s-3.241,4.051-3.241,4.051h158.788c0,0,2.43-8.912-4.051-12.962
		C236.871,50.15,235.25,55.011,227.959,53.391z"/>
	<path style="fill:none;stroke:#263238;stroke-linecap:round;stroke-linejoin:round;stroke-miterlimit:10;" d="M117.601,92.71
		c0,0-10.827-16.692-19.399-15.79c-8.572,0.902-8.12,7.218-11.278,12.181c-3.158,4.962-8.12-2.256-13.083-0.451
		c-4.963,1.805-3.158,4.962-6.316,6.316c-3.158,1.353-10.376-5.865-13.083-3.609c-2.707,2.256-3.609,5.865-5.414,6.767
		c-1.804,0.902-5.414-2.256-7.218,0c-1.805,2.256-1.805,2.256-1.805,2.256h88.422c0,0,1.353-4.963-2.256-7.218
		C122.563,90.905,121.661,93.612,117.601,92.71z"/>
</g>
<g id="Shed">
	<g>
		<g>
			<rect x="267.302" y="233.63" style="fill:#92E3A9;" width="150.831" height="237.992"/>
			<rect x="267.302" y="233.63" style="opacity:0.3;" width="150.831" height="237.992"/>
			
				<rect x="267.302" y="233.63" style="fill:none;stroke:#263238;stroke-linecap:round;stroke-linejoin:round;stroke-miterlimit:10;" width="150.831" height="237.992"/>
			<g>
				
					<line style="fill:none;stroke:#263238;stroke-linecap:round;stroke-linejoin:round;stroke-miterlimit:10;" x1="283.713" y1="259.581" x2="417.991" y2="259.581"/>
				
					<line style="fill:none;stroke:#263238;stroke-linecap:round;stroke-linejoin:round;stroke-miterlimit:10;" x1="283.713" y1="290.131" x2="417.991" y2="290.131"/>
				
					<line style="fill:none;stroke:#263238;stroke-linecap:round;stroke-linejoin:round;stroke-miterlimit:10;" x1="283.713" y1="320.681" x2="417.991" y2="320.681"/>
				
					<line style="fill:none;stroke:#263238;stroke-linecap:round;stroke-linejoin:round;stroke-miterlimit:10;" x1="283.713" y1="351.232" x2="417.991" y2="351.232"/>
				
					<line style="fill:none;stroke:#263238;stroke-linecap:round;stroke-linejoin:round;stroke-miterlimit:10;" x1="283.713" y1="381.782" x2="417.991" y2="381.782"/>
				
					<line style="fill:none;stroke:#263238;stroke-linecap:round;stroke-linejoin:round;stroke-miterlimit:10;" x1="283.713" y1="412.332" x2="417.991" y2="412.332"/>
				
					<line style="fill:none;stroke:#263238;stroke-linecap:round;stroke-linejoin:round;stroke-miterlimit:10;" x1="283.713" y1="442.882" x2="417.991" y2="442.882"/>
			</g>
			
				<rect x="354.388" y="233.63" style="fill:#263238;stroke:#263238;stroke-linecap:round;stroke-linejoin:round;stroke-miterlimit:10;" width="3.657" height="237.992"/>
		</g>
		<polygon style="fill:#FFFFFF;stroke:#263238;stroke-linecap:round;stroke-linejoin:round;stroke-miterlimit:10;" points="
			103.356,243.977 109.031,243.977 109.031,241.306 		"/>
		<polygon style="fill:#92E3A9;stroke:#263238;stroke-linecap:round;stroke-linejoin:round;stroke-miterlimit:10;" points="
			284.869,471.622 108.834,471.622 108.834,233.63 197.682,184.083 284.869,233.63 		"/>
		
			<line style="fill:none;stroke:#263238;stroke-linecap:round;stroke-linejoin:round;stroke-miterlimit:10;" x1="122.436" y1="229.031" x2="268.082" y2="229.031"/>
		<g>
			
				<line style="fill:none;stroke:#263238;stroke-linecap:round;stroke-linejoin:round;stroke-miterlimit:10;" x1="109.648" y1="259.581" x2="285.133" y2="259.581"/>
			
				<line style="fill:none;stroke:#263238;stroke-linecap:round;stroke-linejoin:round;stroke-miterlimit:10;" x1="109.648" y1="290.131" x2="285.133" y2="290.131"/>
			
				<line style="fill:none;stroke:#263238;stroke-linecap:round;stroke-linejoin:round;stroke-miterlimit:10;" x1="109.648" y1="320.681" x2="285.133" y2="320.681"/>
			
				<line style="fill:none;stroke:#263238;stroke-linecap:round;stroke-linejoin:round;stroke-miterlimit:10;" x1="109.648" y1="351.232" x2="285.133" y2="351.232"/>
			
				<line style="fill:none;stroke:#263238;stroke-linecap:round;stroke-linejoin:round;stroke-miterlimit:10;" x1="109.648" y1="381.782" x2="285.133" y2="381.782"/>
			
				<line style="fill:none;stroke:#263238;stroke-linecap:round;stroke-linejoin:round;stroke-miterlimit:10;" x1="109.648" y1="412.332" x2="285.133" y2="412.332"/>
			
				<line style="fill:none;stroke:#263238;stroke-linecap:round;stroke-linejoin:round;stroke-miterlimit:10;" x1="109.648" y1="442.882" x2="285.133" y2="442.882"/>
		</g>
		<polygon style="fill:#263238;stroke:#263238;stroke-linecap:round;stroke-linejoin:round;stroke-miterlimit:10;" points="
			240.52,208.427 197.682,184.083 154.028,208.427 		"/>
		
			<rect x="137.366" y="259.888" style="fill:#263238;stroke:#263238;stroke-linecap:round;stroke-linejoin:round;stroke-miterlimit:10;" width="123.13" height="211.734"/>
		<g>
			
				<rect x="145.281" y="271.65" style="fill:#919191;stroke:#263238;stroke-linecap:round;stroke-linejoin:round;stroke-miterlimit:10;" width="48.925" height="65.885"/>
			<g>
				
					<rect x="147.989" y="275.006" style="fill:#5C5C5C;stroke:#263238;stroke-linecap:round;stroke-linejoin:round;stroke-miterlimit:10;" width="19.396" height="27.093"/>
				
					<rect x="171.696" y="275.006" style="fill:#5C5C5C;stroke:#263238;stroke-linecap:round;stroke-linejoin:round;stroke-miterlimit:10;" width="19.396" height="27.093"/>
				
					<rect x="147.989" y="306.409" style="fill:#5C5C5C;stroke:#263238;stroke-linecap:round;stroke-linejoin:round;stroke-miterlimit:10;" width="19.396" height="27.093"/>
				
					<rect x="171.696" y="306.409" style="fill:#5C5C5C;stroke:#263238;stroke-linecap:round;stroke-linejoin:round;stroke-miterlimit:10;" width="19.396" height="27.093"/>
			</g>
		</g>
		<g>
			
				<rect x="203.395" y="271.65" style="fill:#919191;stroke:#263238;stroke-linecap:round;stroke-linejoin:round;stroke-miterlimit:10;" width="48.925" height="65.885"/>
			<g>
				
					<rect x="206.103" y="275.006" style="fill:#5C5C5C;stroke:#263238;stroke-linecap:round;stroke-linejoin:round;stroke-miterlimit:10;" width="19.396" height="27.093"/>
				
					<rect x="229.809" y="275.006" style="fill:#5C5C5C;stroke:#263238;stroke-linecap:round;stroke-linejoin:round;stroke-miterlimit:10;" width="19.396" height="27.093"/>
				<polyline style="fill:#5C5C5C;stroke:#263238;stroke-linecap:round;stroke-linejoin:round;stroke-miterlimit:10;" points="
					211.756,306.409 206.103,306.409 206.103,333.502 225.499,333.502 225.499,306.409 211.756,306.409 				"/>
				
					<rect x="229.809" y="306.409" style="fill:#5C5C5C;stroke:#263238;stroke-linecap:round;stroke-linejoin:round;stroke-miterlimit:10;" width="19.396" height="27.093"/>
			</g>
		</g>
		
			<line style="fill:none;stroke:#5C5C5C;stroke-linecap:round;stroke-linejoin:round;stroke-miterlimit:10;" x1="198.235" y1="262.61" x2="198.235" y2="469.108"/>
		
			<rect x="191.92" y="363.018" style="fill:#5C5C5C;stroke:#263238;stroke-linecap:round;stroke-linejoin:round;stroke-miterlimit:10;" width="13.261" height="6.315"/>
		<g>
			<g>
				<polygon style="fill:#263238;stroke:#263238;stroke-linecap:round;stroke-linejoin:round;stroke-miterlimit:10;" points="
					197.682,184.083 291.37,236.881 434.398,236.881 340.709,184.083 				"/>
				<g>
					
						<line style="fill:none;stroke:#5C5C5C;stroke-linecap:round;stroke-linejoin:round;stroke-miterlimit:10;" x1="214.758" y1="191.426" x2="348.66" y2="191.426"/>
					
						<line style="fill:none;stroke:#5C5C5C;stroke-linecap:round;stroke-linejoin:round;stroke-miterlimit:10;" x1="235.192" y1="202.247" x2="369.094" y2="202.247"/>
					
						<line style="fill:none;stroke:#5C5C5C;stroke-linecap:round;stroke-linejoin:round;stroke-miterlimit:10;" x1="255.143" y1="213.067" x2="389.046" y2="213.067"/>
					
						<line style="fill:none;stroke:#5C5C5C;stroke-linecap:round;stroke-linejoin:round;stroke-miterlimit:10;" x1="273.221" y1="223.887" x2="407.123" y2="223.887"/>
				</g>
			</g>
			<g>
				
					<rect x="291.37" y="236.881" style="fill:#919191;stroke:#263238;stroke-linecap:round;stroke-linejoin:round;stroke-miterlimit:10;" width="143.24" height="6.526"/>
				<polygon style="fill:#919191;stroke:#263238;stroke-linecap:round;stroke-linejoin:round;stroke-miterlimit:10;" points="
					291.37,243.407 197.807,191.637 103.356,243.977 103.356,236.358 197.682,184.083 291.37,236.881 				"/>
			</g>
		</g>
	</g>
</g>
<g id="Plant_2">
	<g>
		<g>
			<path style="fill:#92E3A9;stroke:#263238;stroke-linecap:round;stroke-linejoin:round;stroke-miterlimit:10;" d="
				M109.072,406.411c0,0-1.9-2.28-2.66-0.76c-0.76,1.52,0.19,1.71,0.19,1.71s-2.09-0.57-2.09,0.57s1.14,1.33,1.14,1.33
				s-3.8-1.9-3.8-0.76c0,1.14,0,1.14,0,1.14s-2.85-0.38-2.85,0.95c0,1.33,0,1.33,0,1.33s-2.66-1.52-2.85-0.19
				c-0.19,1.33,0.38,2.66,0.38,2.66s-3.23-0.95-2.66,0.19c0.57,1.14,1.71,1.71,1.71,1.71s-3.04-0.19-3.04,1.14l2.09,0.95
				c0,0-1.9,1.71-1.33,2.28c0.57,0.57,2.85-0.19,2.85-0.19s-1.52,2.09-0.95,2.28c0.57,0.19,1.33-0.57,1.33-0.57
				s-1.33,3.42-0.38,3.42c0.95,0,3.23-0.76,3.23-0.76h30.587c0,0,3.8-3.42,3.04-3.99c-0.76-0.57-0.76-0.57-0.76-0.57
				s1.33-1.14,0.95-1.9c-0.38-0.76-1.71-0.57-1.71-0.57s1.71-3.42,0-3.8c-1.71-0.38-2.66,0-2.66,0s0-4.18-0.95-4.18
				s-1.9,0.95-1.9,0.95s0.95-1.71-0.76-1.9c-1.71-0.19-1.71-0.19-1.71-0.19s-1.33-3.04-2.28-2.66s-0.95,0.38-0.95,0.38
				s-1.14-1.52-2.28-0.95c-1.14,0.57-1.14,0.57-1.14,0.57s-0.19-1.52-1.52-1.33c-1.33,0.19-2.85,1.9-2.85,1.9s0.19-1.52-0.76-1.52
				C110.782,405.082,109.072,406.411,109.072,406.411z"/>
			<path style="fill:#92E3A9;stroke:#263238;stroke-linecap:round;stroke-linejoin:round;stroke-miterlimit:10;" d="M109.452,421.04
				c0,0-5.509-2.09-4.369-2.66c1.14-0.57,3.8,0.57,3.8,0.57s-3.8-4.56-2.66-4.56c1.14,0,2.28,1.14,2.28,1.14s-1.14-4.179-0.38-4.179
				l1.71,0.76c0,0-0.95-4.94,0.38-4.18c1.33,0.76,1.14,6.839,1.14,6.839s2.09-5.129,2.28-3.04c0.19,2.09-1.14,5.13-1.14,5.13
				s1.9-1.9,1.9-0.19c0,1.71-0.95,2.66-0.95,2.66s3.99-0.19,2.85,1.33c-1.14,1.52-5.319,3.04-5.319,3.04"/>
			<path style="fill:#92E3A9;stroke:#263238;stroke-linecap:round;stroke-linejoin:round;stroke-miterlimit:10;" d="
				M101.093,412.111c0,0-5.509-2.09-4.37-2.66c1.14-0.57,3.8,0.57,3.8,0.57s-3.8-4.559-2.66-4.559s2.28,1.14,2.28,1.14
				s-1.14-4.18-0.38-4.18l1.71,0.76c0,0-0.95-4.939,0.38-4.18s1.14,6.839,1.14,6.839s2.09-5.129,2.28-3.04
				c0.19,2.09-1.14,5.13-1.14,5.13s1.9-1.9,1.9-0.19c0,1.71-0.95,2.66-0.95,2.66s3.99-0.19,2.85,1.33
				c-1.14,1.52-5.319,3.04-5.319,3.04"/>
			<path style="fill:#92E3A9;stroke:#263238;stroke-linecap:round;stroke-linejoin:round;stroke-miterlimit:10;" d="
				M109.642,406.031c0,0-5.509-2.09-4.37-2.66c1.14-0.57,3.8,0.57,3.8,0.57s-3.8-4.56-2.66-4.56s2.28,1.14,2.28,1.14
				s-1.14-4.18-0.38-4.18l1.71,0.76c0,0-0.95-4.939,0.38-4.18c1.33,0.76,1.14,6.839,1.14,6.839s2.09-5.129,2.28-3.04
				c0.19,2.09-1.14,5.129-1.14,5.129s1.9-1.9,1.9-0.19c0,1.71-0.95,2.66-0.95,2.66s3.99-0.19,2.85,1.33
				c-1.14,1.52-5.319,3.04-5.319,3.04"/>
			<path style="fill:#92E3A9;stroke:#263238;stroke-linecap:round;stroke-linejoin:round;stroke-miterlimit:10;" d="
				M115.531,411.351c0,0-5.509-2.09-4.369-2.66c1.14-0.57,3.8,0.57,3.8,0.57s-3.8-4.56-2.66-4.56c1.14,0,2.28,1.14,2.28,1.14
				s-1.14-4.18-0.38-4.18l1.71,0.76c0,0-0.95-4.94,0.38-4.18c1.33,0.76,1.14,6.839,1.14,6.839s2.09-5.13,2.28-3.04
				s-1.14,5.129-1.14,5.129s1.9-1.9,1.9-0.19c0,1.71-0.95,2.66-0.95,2.66s3.99-0.19,2.85,1.33s-5.319,3.04-5.319,3.04"/>
			<path style="fill:#92E3A9;stroke:#263238;stroke-linecap:round;stroke-linejoin:round;stroke-miterlimit:10;" d="
				M117.966,420.089c0,0-3.118-2.923-2.196-2.99c0.922-0.068,2.391,1.431,2.391,1.431s-1.29-4.107-0.525-3.792
				s1.214,1.394,1.214,1.394s0.389-3.118,0.899-2.908l0.937,0.982c0,0,0.727-3.575,1.409-2.698c0.682,0.877-1.124,4.902-1.124,4.902
				s2.818-2.863,2.368-1.409c-0.449,1.454-2.181,3.126-2.181,3.126s1.799-0.75,1.327,0.397c-0.472,1.147-1.371,1.522-1.371,1.522
				s2.728,0.974,1.544,1.679c-1.184,0.705-4.407,0.57-4.407,0.57"/>
		</g>
		<polygon style="fill:#919191;stroke:#263238;stroke-linecap:round;stroke-linejoin:round;stroke-miterlimit:10;" points="
			127.498,471.622 99.033,471.622 92.933,424.08 133.598,424.08 		"/>
	</g>
</g>
<g id="Plant_1">
	<g>
		<g>
			<path style="fill:#92E3A9;stroke:#263238;stroke-linecap:round;stroke-linejoin:round;stroke-miterlimit:10;" d="M79.198,361.026
				c0,0-10.086-21.757-6.917-21.757c3.169,0,3.621,4.527,3.621,4.527s-3.847-10.863-2.716-10.863c1.132,0,2.49,2.037,2.49,2.037
				s-3.621-9.279-2.263-9.279c1.358,0,3.169,3.168,3.169,3.168s-2.49-14.032,0-12.674c2.49,1.358,2.716,8.827,2.716,8.827
				s2.037-16.748,3.169-13.353c1.132,3.395,0,14.937,0,14.937s4.753-9.732,5.658-6.563c0.905,3.169-6.337,12.448-6.337,12.448
				s5.658-5.205,5.432-2.037c-0.226,3.169-2.786,7.002-2.786,7.002s5.728-2.702,5.049,0.014c-0.679,2.716-3.847,6.337-3.847,6.337
				s1.677-2.785,1.631,1.097c-0.046,3.882-2.536,7.503-2.536,7.503s3.169-0.905,1.584,1.584
				C84.729,356.47,79.198,361.026,79.198,361.026z"/>
			<path style="fill:#92E3A9;stroke:#263238;stroke-linecap:round;stroke-linejoin:round;stroke-miterlimit:10;" d="M77.454,348.629
				c0,0-0.079-9.927-1.351-10.278s-2.279,1.546-2.279,1.546s-1.593-6.922-2.732-6.15c-1.139,0.773-0.554,3.028-0.554,3.028
				s-4.051-4.581-5.971-4.627c-1.92-0.047,0.734,2.739,0.734,2.739s-5.362-3.332-7.141-2.575c-1.779,0.757,3.887,4.737,3.887,4.737
				s-15.242-5.173-13.712-2.254c1.53,2.919,9.49,4.713,9.49,4.713s-7.227,0.945-4.214,2.139c1.982,0.785,6.118,1.277,8.717,1.521
				c1.352,0.127,2.287,0.187,2.287,0.187s-8.881,3.146-5.221,4.035c1.957,0.475,4.75,0.422,6.926,0.27
				c1.895-0.133,3.321-0.341,3.321-0.341s-4.667,1.007-2.77,2.014c1.896,1.007,6.212,1.272,6.212,1.272s-4.191,1.179-2.458,2.341
				c1.733,1.163,6.071,3.298,6.071,3.298L77.454,348.629z"/>
			<path style="fill:#92E3A9;stroke:#263238;stroke-linecap:round;stroke-linejoin:round;stroke-miterlimit:10;" d="M83.081,347.723
				c0,0,0.079-9.927,1.351-10.278c1.272-0.351,2.279,1.546,2.279,1.546s1.593-6.922,2.732-6.15c1.139,0.773,0.554,3.028,0.554,3.028
				s4.051-4.581,5.971-4.627c1.92-0.047-0.734,2.739-0.734,2.739s5.362-3.332,7.141-2.575c1.779,0.757-3.887,4.737-3.887,4.737
				s15.242-5.173,13.712-2.254c-1.53,2.919-9.49,4.713-9.49,4.713s7.227,0.945,4.214,2.139c-1.982,0.785-6.118,1.277-8.717,1.521
				c-1.352,0.127-2.287,0.187-2.287,0.187s8.881,3.146,5.221,4.035c-1.957,0.475-4.75,0.422-6.925,0.27
				c-1.895-0.133-3.321-0.341-3.321-0.341s4.667,1.007,2.77,2.014c-1.896,1.007-6.212,1.271-6.212,1.271s4.191,1.179,2.458,2.341
				c-1.733,1.163-6.071,3.298-6.071,3.298L83.081,347.723z"/>
			<path style="fill:#263238;stroke:#263238;stroke-linecap:round;stroke-linejoin:round;stroke-miterlimit:10;" d="M67.072,372.791
				c0,0,5.511,3.937,7.873,6.692c2.362,2.756,2.362,2.756,2.362,2.756v65.593h4.724v-65.593l7.086-8.661l-6.692,4.724l4.33-16.14
				l-7.48,14.959l-6.692-12.991l1.968,11.416L67.072,372.791z"/>
			<path style="fill:#92E3A9;stroke:#263238;stroke-linecap:round;stroke-linejoin:round;stroke-miterlimit:10;" d="M69.924,370.169
				c0,0-6.715-6.296-7.765-5.666c-1.049,0.63-0.42,2.518-0.42,2.518s-5.666-3.358-5.876-2.099c-0.21,1.259,1.679,2.308,1.679,2.308
				s-5.666-0.21-6.925,1.049c-1.259,1.259,2.308,1.259,2.308,1.259s-5.666,1.469-6.296,3.148c-0.63,1.679,5.666,0.42,5.666,0.42
				s-13.221,6.925-10.283,7.765c2.938,0.839,9.234-3.358,9.234-3.358s-3.987,5.456-1.259,4.197c1.795-0.828,4.77-3.291,6.596-4.88
				c0.95-0.826,1.589-1.416,1.589-1.416s-3.568,7.974-0.63,6.086c1.571-1.01,3.321-2.919,4.61-4.477
				c1.122-1.357,1.895-2.448,1.895-2.448s-2.308,3.777-0.42,3.148c1.889-0.63,4.827-3.358,4.827-3.358s-1.889,3.568,0,3.148
				c1.889-0.42,6.097-1.967,6.097-1.967L69.924,370.169z"/>
			<path style="fill:#92E3A9;stroke:#263238;stroke-linecap:round;stroke-linejoin:round;stroke-miterlimit:10;" d="M77.659,365.626
				c0,0-0.073-9.205-1.253-9.53c-1.18-0.326-2.113,1.433-2.113,1.433s-1.477-6.418-2.533-5.702
				c-1.056,0.716-0.513,2.808-0.513,2.808s-3.756-4.247-5.536-4.291c-1.78-0.043,0.68,2.54,0.68,2.54s-4.972-3.09-6.621-2.387
				c-1.65,0.702,3.604,4.392,3.604,4.392s-14.133-4.797-12.714-2.09c1.419,2.706,8.8,4.37,8.8,4.37s-6.701,0.876-3.907,1.983
				c1.838,0.728,5.673,1.184,8.083,1.41c1.253,0.118,2.121,0.174,2.121,0.174s-8.235,2.917-4.841,3.742
				c1.814,0.441,4.404,0.392,6.422,0.25c1.757-0.123,3.08-0.316,3.08-0.316s-4.327,0.934-2.569,1.867
				c1.758,0.933,5.76,1.179,5.76,1.179s-3.886,1.093-2.279,2.171c1.607,1.078,5.629,3.058,5.629,3.058L77.659,365.626z"/>
			<path style="fill:#92E3A9;stroke:#263238;stroke-linecap:round;stroke-linejoin:round;stroke-miterlimit:10;" d="M82.877,364.786
				c0,0,0.073-9.205,1.253-9.53c1.18-0.326,2.113,1.433,2.113,1.433s1.477-6.419,2.533-5.702c1.057,0.716,0.514,2.808,0.514,2.808
				s3.756-4.248,5.536-4.291c1.78-0.043-0.681,2.54-0.681,2.54s4.972-3.089,6.622-2.387c1.65,0.702-3.604,4.392-3.604,4.392
				s14.133-4.796,12.715-2.09s-8.8,4.37-8.8,4.37s6.701,0.876,3.907,1.983c-1.838,0.728-5.673,1.184-8.082,1.41
				c-1.253,0.118-2.121,0.174-2.121,0.174s8.235,2.917,4.841,3.742c-1.814,0.441-4.404,0.392-6.422,0.25
				c-1.757-0.123-3.08-0.316-3.08-0.316s4.327,0.934,2.569,1.867s-5.76,1.179-5.76,1.179s3.886,1.093,2.279,2.171
				c-1.607,1.078-5.629,3.058-5.629,3.058L82.877,364.786z"/>
			<path style="fill:#92E3A9;stroke:#263238;stroke-linecap:round;stroke-linejoin:round;stroke-miterlimit:10;" d="M88.551,371.25
				c0,0,6.237-6.77,7.329-6.219c1.093,0.551,0.603,2.481,0.603,2.481s5.405-3.763,5.707-2.523c0.301,1.24-1.506,2.425-1.506,2.425
				s5.636-0.624,6.983,0.54c1.348,1.164-2.21,1.424-2.21,1.424s5.758,1.051,6.509,2.679c0.751,1.628-5.62,0.833-5.62,0.833
				s13.692,5.94,10.823,6.992c-2.869,1.052-9.454-2.674-9.454-2.674s4.376,5.15,1.563,4.094c-1.85-0.695-4.998-2.934-6.935-4.384
				c-1.008-0.755-1.688-1.296-1.688-1.296s4.141,7.692,1.073,6.023c-1.64-0.892-3.526-2.668-4.925-4.128
				c-1.219-1.271-2.069-2.303-2.069-2.303s2.578,3.599,0.649,3.109c-1.93-0.49-5.059-2.996-5.059-2.996s2.144,3.42,0.23,3.139
				c-1.914-0.28-6.224-1.516-6.224-1.516L88.551,371.25z"/>
			<path style="fill:#92E3A9;stroke:#263238;stroke-linecap:round;stroke-linejoin:round;stroke-miterlimit:10;" d="M83.355,375.205
				c0,0-5.666-6.506-6.506-5.036c-0.84,1.469,0.107,2.518,0.107,2.518s-5.773-0.839-5.144,0.42l2.739,2.44
				c0,0-3.998,0.078-4.208,1.757c-0.21,1.679,3.148,0.42,3.148,0.42s-7.345,5.876-6.086,7.345c1.259,1.469,3.987-1.889,3.987-1.889
				s-3.358,7.135-1.889,7.975c1.469,0.839,4.617-6.506,4.617-6.506s-1.469,10.912,0.21,9.863c1.679-1.049,2.728-10.493,2.728-10.493
				s1.049,2.518,1.889,0.839c0.839-1.679,0.839-5.037,0.839-5.037s2.18,5.044,2.244,2.417c0.036-1.464-0.274-2.763-0.556-3.627
				c-0.224-0.687-0.429-1.098-0.429-1.098s2.938,6.506,3.148,4.197C84.404,379.402,83.355,375.205,83.355,375.205z"/>
			<path style="fill:#92E3A9;stroke:#263238;stroke-linecap:round;stroke-linejoin:round;stroke-miterlimit:10;" d="M81.745,354.505
				c0,0-9.15-0.865-8.999,1.397c0.151,2.263,1.985,2.732,1.985,2.732s-7.069,3.342-5.433,4.281l4.867,0.695
				c0,0-4.407,3.05-3.397,5.08c1.01,2.03,3.826-1.864,3.826-1.864s-3.848,12.004-1.353,12.712c2.495,0.707,3.053-5.064,3.053-5.064
				s1.538,10.456,3.8,10.305c2.262-0.151,0.335-10.686,0.335-10.686s6.446,13.275,7.543,10.859
				c1.097-2.416-4.729-13.739-4.729-13.739s3.038,2.035,2.731-0.462c-0.307-2.497-2.795-6.246-2.795-6.246s6.172,4.017,4.297,1.036
				c-1.045-1.661-2.354-2.883-3.309-3.639c-0.759-0.601-1.293-0.908-1.293-0.908s8.102,5.088,6.625,2.354
				C88.025,360.616,81.745,354.505,81.745,354.505z"/>
		</g>
		<path style="fill:#FFFFFF;stroke:#263238;stroke-linecap:round;stroke-linejoin:round;stroke-miterlimit:10;" d="M94.934,442.359
			H84.395h-9.637H64.218C62.322,445.946,60,454.979,60,457.754c0,4.682,5.421,11.137,12.348,13.868h2.409h9.637h2.409
			c6.927-2.731,12.348-9.186,12.348-13.868C99.152,454.979,96.829,445.946,94.934,442.359z"/>
		<path style="fill:#263238;stroke:#263238;stroke-linecap:round;stroke-linejoin:round;stroke-miterlimit:10;" d="M60.016,457.992
			c0.176,4.661,5.52,10.944,12.331,13.629h14.456c6.812-2.686,12.155-8.969,12.331-13.629H60.016z"/>
		<path style="fill:#FFFFFF;stroke:#263238;stroke-linecap:round;stroke-linejoin:round;stroke-miterlimit:10;" d="M94.934,442.359
			c0,0,4.52-5.356,5.235-2.971c0.715,2.385-3.816,5.963-3.816,5.963L94.934,442.359z"/>
		<path style="fill:#FFFFFF;stroke:#263238;stroke-linecap:round;stroke-linejoin:round;stroke-miterlimit:10;" d="M64.218,442.359
			c0,0-4.52-5.356-5.235-2.971c-0.716,2.385,3.816,5.963,3.816,5.963L64.218,442.359z"/>
	</g>
</g>
<g id="Axe">
	<g>
		<path style="fill:#FFFFFF;stroke:#263238;stroke-linecap:round;stroke-linejoin:round;stroke-miterlimit:10;" d="M408.145,412.163
			c0,0,7.064-2.093,10.309-3.378c3.245-1.285,16.492-8.698,20.806-10.483c4.314-1.785,9.718-3.451,12.178-3.129
			c2.461,0.322,4.538,1.247,5.259,0.541c0.721-0.706,2.574-6.597,2.854-7.537c0.279-0.94-0.005-2.047-0.767-2.58
			c-0.762-0.533-1.559-0.259-3.352-0.076c-1.793,0.183-12.188,2.819-17.628,5.293c-5.439,2.474-16.886,8.99-20.507,10.163
			c-3.621,1.173-8.087,2.095-9.57,2.268c-1.483,0.173-1.943,0.343-1.943,0.343L408.145,412.163z"/>
		<path style="fill:#263238;stroke:#263238;stroke-linecap:round;stroke-linejoin:round;stroke-miterlimit:10;" d="M405.669,401.918
			c0,0,1.811,3.197,2.578,5.777c0.767,2.58,1.387,6.343,4.586,9.339c3.2,2.996,5.315,4.136,5.315,4.136s-2.966,4.129-6.615,5.396
			s-4.606,1.392-4.606,1.392s-1.509-6.277-4-11.312c-2.491-5.035-4.508-11.668-4.508-11.668S401.885,401.918,405.669,401.918z"/>
		<path style="fill:#263238;stroke:#263238;stroke-linecap:round;stroke-linejoin:round;stroke-miterlimit:10;" d="M453.978,389.383
			c0.519,0.154,0.815,0.7,0.66,1.219s-0.7,0.814-1.219,0.66c-0.519-0.154-0.814-0.7-0.66-1.219
			C452.913,389.525,453.459,389.229,453.978,389.383z"/>
		<path style="fill:#FFFFFF;stroke:#263238;stroke-linecap:round;stroke-linejoin:round;stroke-miterlimit:10;" d="M418.148,421.17
			c0,0-1.115-0.608-2.934-2.068c-2.165,1.948-5.341,4.526-8.915,6.539c0.408,1.404,0.628,2.317,0.628,2.317s0.957-0.124,4.606-1.392
			S418.148,421.17,418.148,421.17z"/>
	</g>
</g>
<g id="Logs">
	<g>
		<path style="fill:#FFFFFF;stroke:#263238;stroke-linecap:round;stroke-linejoin:round;stroke-miterlimit:10;" d="M422.984,426.105
			c0,0-11.147,0.464-13.469,0.464s-14.863,0-14.863,0s-0.464,9.289-0.464,14.398s-0.465,15.327-0.465,15.327l-0.464,15.327h38.086
			l-1.393-31.583v-13.469L422.984,426.105z"/>
		
			<line style="fill:none;stroke:#263238;stroke-linecap:round;stroke-linejoin:round;stroke-miterlimit:10;" x1="407.698" y1="427.147" x2="406.69" y2="471.134"/>
		
			<line style="fill:none;stroke:#263238;stroke-linecap:round;stroke-linejoin:round;stroke-miterlimit:10;" x1="403.259" y1="427.147" x2="403.259" y2="453.781"/>
		
			<line style="fill:none;stroke:#263238;stroke-linecap:round;stroke-linejoin:round;stroke-miterlimit:10;" x1="398.82" y1="427.147" x2="398.82" y2="431.99"/>
		
			<line style="fill:none;stroke:#263238;stroke-linecap:round;stroke-linejoin:round;stroke-miterlimit:10;" x1="398.619" y1="435.621" x2="398.619" y2="441.069"/>
		
			<line style="fill:none;stroke:#263238;stroke-linecap:round;stroke-linejoin:round;stroke-miterlimit:10;" x1="400.233" y1="470.731" x2="400.233" y2="449.544"/>
		
			<line style="fill:none;stroke:#263238;stroke-linecap:round;stroke-linejoin:round;stroke-miterlimit:10;" x1="422.984" y1="426.105" x2="423.235" y2="432.393"/>
		
			<line style="fill:none;stroke:#263238;stroke-linecap:round;stroke-linejoin:round;stroke-miterlimit:10;" x1="416.375" y1="471.538" x2="416.173" y2="465.888"/>
	</g>
	<g>
		<path style="fill:#FFFFFF;stroke:#263238;stroke-linecap:round;stroke-linejoin:round;stroke-miterlimit:10;" d="M380.339,446.256
			c0,0-27.287,0-28.825,0s-26.134,0-27.287,0.769c-1.153,0.769-4.996,4.228-4.996,6.534c0,2.306-0.384,9.224-0.384,9.224
			l4.612,6.534l8.455,2.306l46.888-0.384L380.339,446.256z"/>
		<path style="fill:#FFFFFF;stroke:#263238;stroke-linecap:round;stroke-linejoin:round;stroke-miterlimit:10;" d="M374.19,448.562
			c0,0-6.149,4.228-6.149,7.302c0,3.075,1.922,11.53,4.228,13.836c2.306,2.306,14.604,1.153,16.91,0
			c2.306-1.153,3.843-11.53,2.69-16.526C390.716,448.178,382.261,442.797,374.19,448.562z"/>
		<path style="fill:#FFFFFF;stroke:#263238;stroke-linecap:round;stroke-linejoin:round;stroke-miterlimit:10;" d="M375.747,451.172
			c0,0-4.543,3.123-4.543,5.395s1.42,8.518,3.123,10.221c1.704,1.703,10.789,0.852,12.493,0c1.704-0.852,2.839-8.518,1.988-12.209
			C387.956,450.888,381.71,446.913,375.747,451.172z"/>
		<path style="fill:#FFFFFF;stroke:#263238;stroke-linecap:round;stroke-linejoin:round;stroke-miterlimit:10;" d="M377.4,453.94
			c0,0-2.839,1.952-2.839,3.371c0,1.419,0.887,5.322,1.951,6.387c1.065,1.064,6.742,0.532,7.806,0
			c1.064-0.532,1.774-5.322,1.242-7.629C385.028,453.763,381.125,451.279,377.4,453.94z"/>
		<path style="fill:none;stroke:#263238;stroke-linecap:round;stroke-linejoin:round;stroke-miterlimit:10;" d="M358.922,464.183
			c4.487-0.071,6.694-0.071,6.694-0.071"/>
		<path style="fill:none;stroke:#263238;stroke-linecap:round;stroke-linejoin:round;stroke-miterlimit:10;" d="M318.847,462.782
			c0,0,13.333-2.521,19.285-0.596c5.952,1.926,7.003,2.276,15.23,2.101"/>
		
			<line style="fill:none;stroke:#263238;stroke-linecap:round;stroke-linejoin:round;stroke-miterlimit:10;" x1="367.367" y1="454.484" x2="357.564" y2="454.484"/>
	</g>
	<g>
		<path style="fill:#FFFFFF;stroke:#263238;stroke-linecap:round;stroke-linejoin:round;stroke-miterlimit:10;" d="M354.567,446.256
			c0,0-27.287,0-28.825,0c-1.537,0-26.134,0-27.287,0.769c-1.153,0.769-4.996,4.228-4.996,6.534c0,2.306-0.384,9.224-0.384,9.224
			l4.612,6.534l8.455,2.306l46.888-0.384L354.567,446.256z"/>
		<path style="fill:#FFFFFF;stroke:#263238;stroke-linecap:round;stroke-linejoin:round;stroke-miterlimit:10;" d="M348.418,448.562
			c0,0-6.149,4.228-6.149,7.302c0,3.075,1.922,11.53,4.228,13.836c2.306,2.306,14.604,1.153,16.91,0
			c2.306-1.153,3.843-11.53,2.69-16.526C364.944,448.178,356.489,442.797,348.418,448.562z"/>
		<path style="fill:#FFFFFF;stroke:#263238;stroke-linecap:round;stroke-linejoin:round;stroke-miterlimit:10;" d="M349.975,451.172
			c0,0-4.543,3.123-4.543,5.395s1.42,8.518,3.123,10.221c1.703,1.703,10.789,0.852,12.493,0c1.703-0.852,2.839-8.518,1.987-12.209
			C362.184,450.888,355.938,446.913,349.975,451.172z"/>
		<path style="fill:#FFFFFF;stroke:#263238;stroke-linecap:round;stroke-linejoin:round;stroke-miterlimit:10;" d="M351.627,453.94
			c0,0-2.839,1.952-2.839,3.371c0,1.419,0.887,5.322,1.952,6.387c1.064,1.064,6.742,0.532,7.806,0
			c1.064-0.532,1.774-5.322,1.242-7.629C359.256,453.763,355.353,451.279,351.627,453.94z"/>
		<path style="fill:none;stroke:#263238;stroke-linecap:round;stroke-linejoin:round;stroke-miterlimit:10;" d="M333.15,464.183
			c4.487-0.071,6.694-0.071,6.694-0.071"/>
		<path style="fill:none;stroke:#263238;stroke-linecap:round;stroke-linejoin:round;stroke-miterlimit:10;" d="M293.075,462.782
			c0,0,13.332-2.521,19.285-0.596c5.952,1.926,7.003,2.276,15.23,2.101"/>
		
			<line style="fill:none;stroke:#263238;stroke-linecap:round;stroke-linejoin:round;stroke-miterlimit:10;" x1="341.595" y1="454.484" x2="331.791" y2="454.484"/>
	</g>
	<g>
		<path style="fill:#FFFFFF;stroke:#263238;stroke-linecap:round;stroke-linejoin:round;stroke-miterlimit:10;" d="M369.291,421.593
			c0,0-27.284-0.446-28.821-0.471c-1.537-0.025-26.131-0.427-27.296,0.322c-1.165,0.75-5.065,4.145-5.102,6.451
			c-0.038,2.306-0.535,9.216-0.535,9.216l4.504,6.608l8.416,2.444l46.888,0.382L369.291,421.593z"/>
		<path style="fill:#FFFFFF;stroke:#263238;stroke-linecap:round;stroke-linejoin:round;stroke-miterlimit:10;" d="M363.105,423.798
			c0,0-6.218,4.126-6.268,7.201c-0.05,3.074,1.733,11.56,4.001,13.903c2.268,2.343,14.584,1.392,16.908,0.276
			c2.324-1.115,4.031-11.466,2.96-16.48C379.635,423.684,371.269,418.166,363.105,423.798z"/>
		<path style="fill:#FFFFFF;stroke:#263238;stroke-linecap:round;stroke-linejoin:round;stroke-miterlimit:10;" d="M364.619,426.433
			c0,0-4.593,3.048-4.63,5.32c-0.037,2.271,1.28,8.54,2.956,10.271c1.675,1.731,10.774,1.028,12.491,0.204
			c1.717-0.824,2.978-8.47,2.187-12.175C376.831,426.349,370.651,422.272,364.619,426.433z"/>
		<path style="fill:#FFFFFF;stroke:#263238;stroke-linecap:round;stroke-linejoin:round;stroke-miterlimit:10;" d="M366.226,429.228
			c0,0-2.87,1.905-2.893,3.324s0.8,5.336,1.847,6.418c1.047,1.082,6.732,0.642,7.805,0.128c1.073-0.515,1.861-5.293,1.366-7.607
			C373.856,429.175,369.995,426.628,366.226,429.228z"/>
		<path style="fill:none;stroke:#263238;stroke-linecap:round;stroke-linejoin:round;stroke-miterlimit:10;" d="M347.583,439.168
			c4.487,0.002,6.695,0.038,6.695,0.038"/>
		<path style="fill:none;stroke:#263238;stroke-linecap:round;stroke-linejoin:round;stroke-miterlimit:10;" d="M307.536,437.112
			c0,0,13.372-2.303,19.292-0.28c5.92,2.023,6.964,2.39,15.194,2.35"/>
		
			<line style="fill:none;stroke:#263238;stroke-linecap:round;stroke-linejoin:round;stroke-miterlimit:10;" x1="356.186" y1="429.608" x2="346.383" y2="429.448"/>
	</g>
</g>
</svg>
