<?xml version="1.0" encoding="utf-8"?>
<!-- Generator: Adobe Illustrator 27.5.0, SVG Export Plug-In . SVG Version: 6.00 Build 0)  -->
<svg version="1.1" xmlns="http://www.w3.org/2000/svg" xmlns:xlink="http://www.w3.org/1999/xlink" x="0px" y="0px"
	 viewBox="0 0 500 500" style="enable-background:new 0 0 500 500;" xml:space="preserve">
<g id="Clouds">
	<g>
		<g>
			<path style="fill:#C6FF00;" d="M447.827,192.391c-3.612-1.97-5.254-0.328-6.567-1.97c-1.313-1.642,3.612-5.911-6.239-10.179
				c0,0-0.657-9.194-14.119-9.522c-13.462-0.328-9.851,9.194-13.462,11.492c-3.612,2.298-4.597-1.313-8.209,0.985
				c-3.612,2.298-1.97,6.895-4.925,7.552c-2.694,0.599-6.206-2.336-9.542-1.121c-1.122-3.672-2.616-7.236-4.606-10.652
				c-12.186-20.927-38.767-30.579-59.58-36.467c-66.223-18.733-82.249,27.264-123.301,52.592
				c-41.052,25.328-89.296,1.987-112.734,20.189c-23.438,18.201-31.264,63.384-19.826,84.221
				c11.438,20.837,36.747,27.625,40.648,37.619c3.902,9.994,2.697,13.26,2.697,13.26s307.018,0,307.033,0
				c2.403-0.001,8.745-12.854,9.986-15.346c7.074-14.21,7.935-28.313-4.487-39.236c-11.986-10.54-32.759-17.168-34.212-36.762
				c-1.457-19.636,3.558-41.857,0.167-61.73h63.906C450.454,197.316,451.439,194.361,447.827,192.391z M195.182,306.3h-83.074
				c0,0,2.298-1.642,4.269-2.955c1.97-1.313,5.254,0,6.895,0c1.642,0,1.642-1.97,5.254-4.269c3.612-2.299,7.552,1.313,10.507,0.657
				c2.955-0.657,1.313-5.254,4.925-7.552c3.612-2.299,4.597,1.313,8.209-0.985c3.612-2.299,0-11.821,13.463-11.493
				c13.463,0.328,14.119,9.522,14.119,9.522c9.851,4.269,4.925,8.537,6.239,10.179c1.314,1.642,2.955,0,6.567,1.97
				C196.167,303.344,195.182,306.3,195.182,306.3z M329.912,160.073h-53.315c0,0,1.475-1.054,2.74-1.897
				c1.264-0.843,3.372,0,4.425,0c1.054,0,1.054-1.264,3.372-2.739c2.318-1.475,4.847,0.843,6.743,0.421
				c1.896-0.421,0.843-3.372,3.161-4.847c2.318-1.475,2.95,0.843,5.268-0.632c2.318-1.475,0-7.586,8.64-7.376
				c8.64,0.211,9.061,6.111,9.061,6.111c6.322,2.74,3.161,5.479,4.004,6.533c0.843,1.053,1.897,0,4.215,1.264
				C330.544,158.176,329.912,160.073,329.912,160.073z"/>
			<path style="fill:#C6FF00;" d="M231.826,109.041c-3.612-1.97-5.254-0.328-6.567-1.97c-1.313-1.642,3.612-5.911-6.239-10.179
				c0,0-0.657-9.194-14.119-9.522c-13.462-0.328-9.851,9.194-13.462,11.492c-3.612,2.298-4.597-1.313-8.209,0.985
				c-3.612,2.298-1.97,6.895-4.925,7.552c-2.955,0.657-6.895-2.955-10.507-0.657c-3.612,2.298-3.612,4.269-5.254,4.269
				c-1.642,0-4.925-1.313-6.895,0c-1.97,1.313-4.269,2.955-4.269,2.955h83.074C234.453,113.967,235.438,111.011,231.826,109.041z"/>
		</g>
		<g style="opacity:0.7;">
			<path style="fill:#FFFFFF;" d="M447.827,192.391c-3.612-1.97-5.254-0.328-6.567-1.97c-1.313-1.642,3.612-5.911-6.239-10.179
				c0,0-0.657-9.194-14.119-9.522c-13.462-0.328-9.851,9.194-13.462,11.492c-3.612,2.298-4.597-1.313-8.209,0.985
				c-3.612,2.298-1.97,6.895-4.925,7.552c-2.694,0.599-6.206-2.336-9.542-1.121c-1.122-3.672-2.616-7.236-4.606-10.652
				c-12.186-20.927-38.767-30.579-59.58-36.467c-66.223-18.733-82.249,27.264-123.301,52.592
				c-41.052,25.328-89.296,1.987-112.734,20.189c-23.438,18.201-31.264,63.384-19.826,84.221
				c11.438,20.837,36.747,27.625,40.648,37.619c3.902,9.994,2.697,13.26,2.697,13.26s307.018,0,307.033,0
				c2.403-0.001,8.745-12.854,9.986-15.346c7.074-14.21,7.935-28.313-4.487-39.236c-11.986-10.54-32.759-17.168-34.212-36.762
				c-1.457-19.636,3.558-41.857,0.167-61.73h63.906C450.454,197.316,451.439,194.361,447.827,192.391z M195.182,306.3h-83.074
				c0,0,2.298-1.642,4.269-2.955c1.97-1.313,5.254,0,6.895,0c1.642,0,1.642-1.97,5.254-4.269c3.612-2.299,7.552,1.313,10.507,0.657
				c2.955-0.657,1.313-5.254,4.925-7.552c3.612-2.299,4.597,1.313,8.209-0.985c3.612-2.299,0-11.821,13.463-11.493
				c13.463,0.328,14.119,9.522,14.119,9.522c9.851,4.269,4.925,8.537,6.239,10.179c1.314,1.642,2.955,0,6.567,1.97
				C196.167,303.344,195.182,306.3,195.182,306.3z M329.912,160.073h-53.315c0,0,1.475-1.054,2.74-1.897
				c1.264-0.843,3.372,0,4.425,0c1.054,0,1.054-1.264,3.372-2.739c2.318-1.475,4.847,0.843,6.743,0.421
				c1.896-0.421,0.843-3.372,3.161-4.847c2.318-1.475,2.95,0.843,5.268-0.632c2.318-1.475,0-7.586,8.64-7.376
				c8.64,0.211,9.061,6.111,9.061,6.111c6.322,2.74,3.161,5.479,4.004,6.533c0.843,1.053,1.897,0,4.215,1.264
				C330.544,158.176,329.912,160.073,329.912,160.073z"/>
			<path style="fill:#FFFFFF;" d="M231.826,109.041c-3.612-1.97-5.254-0.328-6.567-1.97c-1.313-1.642,3.612-5.911-6.239-10.179
				c0,0-0.657-9.194-14.119-9.522c-13.462-0.328-9.851,9.194-13.462,11.492c-3.612,2.298-4.597-1.313-8.209,0.985
				c-3.612,2.298-1.97,6.895-4.925,7.552c-2.955,0.657-6.895-2.955-10.507-0.657c-3.612,2.298-3.612,4.269-5.254,4.269
				c-1.642,0-4.925-1.313-6.895,0c-1.97,1.313-4.269,2.955-4.269,2.955h83.074C234.453,113.967,235.438,111.011,231.826,109.041z"/>
		</g>
	</g>
</g>
<g id="House">
	<g>
		
			<polygon style="fill:#FFFFFF;stroke:#263238;stroke-width:0.8875;stroke-linecap:round;stroke-linejoin:round;stroke-miterlimit:10;" points="
			441.743,285.82 451.495,311.973 444.846,311.973 438.197,291.583 		"/>
		<polygon style="fill:#263238;" points="447.063,350.391 359.146,350.391 359.146,305.472 440.77,292.997 447.063,310.339 		"/>
		<rect x="256.602" y="214.453" style="fill:#263238;" width="114.661" height="135.938"/>
		<g>
			<polygon style="fill:#263238;" points="249.539,225.438 244.663,219.122 314.569,165.147 383.202,218.14 378.326,224.456 
				314.569,175.227 			"/>
		</g>
		<g>
			
				<rect x="235.62" y="214.453" style="fill:#FFFFFF;stroke:#263238;stroke-width:0.8875;stroke-linecap:round;stroke-linejoin:round;stroke-miterlimit:10;" width="114.661" height="135.938"/>
			<polygon style="fill:#FFFFFF;stroke:#263238;stroke-width:0.8875;stroke-linejoin:round;stroke-miterlimit:10;" points="
				292.951,170.187 235.62,214.453 350.281,214.453 			"/>
			<polygon style="fill:#C6FF00;" points="292.951,170.187 235.62,214.453 235.62,224.533 248.675,214.453 292.951,180.267 
				337.225,214.453 350.281,224.533 350.281,214.453 			"/>
		</g>
		
			<rect x="350.281" y="305.472" style="fill:#FFFFFF;stroke:#263238;stroke-width:0.8875;stroke-linecap:round;stroke-linejoin:round;stroke-miterlimit:10;" width="87.916" height="44.919"/>
		<g>
			
				<rect x="359.146" y="305.472" style="fill:#C6FF00;stroke:#263238;stroke-width:0.8875;stroke-linecap:round;stroke-linejoin:round;stroke-miterlimit:10;" width="70.185" height="44.919"/>
			<rect x="350.281" y="305.472" style="fill:#C6FF00;" width="87.916" height="9.627"/>
			
				<line style="fill:none;stroke:#263238;stroke-width:0.8875;stroke-linecap:round;stroke-linejoin:round;stroke-miterlimit:10;" x1="359.146" y1="318.622" x2="429.332" y2="318.622"/>
			
				<line style="fill:none;stroke:#263238;stroke-width:0.8875;stroke-linecap:round;stroke-linejoin:round;stroke-miterlimit:10;" x1="359.146" y1="325.272" x2="429.332" y2="325.272"/>
			
				<line style="fill:none;stroke:#263238;stroke-width:0.8875;stroke-linecap:round;stroke-linejoin:round;stroke-miterlimit:10;" x1="359.146" y1="331.921" x2="429.332" y2="331.921"/>
			
				<line style="fill:none;stroke:#263238;stroke-width:0.8875;stroke-linecap:round;stroke-linejoin:round;stroke-miterlimit:10;" x1="359.146" y1="338.57" x2="429.332" y2="338.57"/>
			
				<line style="fill:none;stroke:#263238;stroke-width:0.8875;stroke-linecap:round;stroke-linejoin:round;stroke-miterlimit:10;" x1="359.146" y1="345.219" x2="429.332" y2="345.219"/>
		</g>
		<rect x="245.077" y="300.153" style="fill:#263238;" width="23.05" height="50.238"/>
		<g>
			<g>
				
					<rect x="280.243" y="300.153" style="fill:#FFFFFF;stroke:#263238;stroke-width:0.8875;stroke-linecap:round;stroke-linejoin:round;stroke-miterlimit:10;" width="23.05" height="34.871"/>
				<g>
					<rect x="280.243" y="316.111" style="fill:#263238;" width="23.05" height="2.955"/>
					<rect x="290.291" y="300.153" style="fill:#263238;" width="2.955" height="34.871"/>
				</g>
			</g>
			<g>
				
					<rect x="322.502" y="300.153" style="fill:#FFFFFF;stroke:#263238;stroke-width:0.8875;stroke-linecap:round;stroke-linejoin:round;stroke-miterlimit:10;" width="23.05" height="34.871"/>
				<g>
					<rect x="322.502" y="316.111" style="fill:#263238;" width="23.05" height="2.955"/>
					<rect x="332.55" y="300.153" style="fill:#263238;" width="2.955" height="34.871"/>
				</g>
			</g>
		</g>
		
			<rect x="311.428" y="300.153" style="fill:#FFFFFF;stroke:#263238;stroke-width:0.8875;stroke-linecap:round;stroke-linejoin:round;stroke-miterlimit:10;" width="4.418" height="50.238"/>
		
			<rect x="272.786" y="300.153" style="fill:#FFFFFF;stroke:#263238;stroke-width:0.8875;stroke-linecap:round;stroke-linejoin:round;stroke-miterlimit:10;" width="4.418" height="50.238"/>
		<rect x="240.94" y="302.221" style="fill:#263238;" width="104.613" height="6.501"/>
		
			<rect x="240.94" y="298.97" style="fill:#C6FF00;stroke:#263238;stroke-width:0.8875;stroke-linecap:round;stroke-linejoin:round;stroke-miterlimit:10;" width="104.613" height="6.501"/>
		<g>
			<polygon style="fill:#FFFFFF;stroke:#263238;stroke-width:0.8875;stroke-linejoin:round;stroke-miterlimit:10;" points="
				227.921,225.438 223.045,219.122 292.951,165.147 361.584,218.14 356.708,224.456 292.951,175.227 			"/>
		</g>
		<polygon style="fill:#263238;" points="438.197,311.973 341.543,311.973 350.408,285.82 441.743,285.82 		"/>
		<polygon style="fill:#263238;" points="361.584,218.14 381.375,218.14 314.569,165.147 292.951,165.147 		"/>
		<polygon style="fill:#263238;" points="356.708,224.456 378.326,224.456 383.202,218.14 361.584,218.14 		"/>
		<g>
			
				<rect x="245.077" y="234.548" style="fill:#FFFFFF;stroke:#263238;stroke-width:0.8875;stroke-linecap:round;stroke-linejoin:round;stroke-miterlimit:10;" width="12.412" height="20.095"/>
			<rect x="245.077" y="244.595" style="fill:#263238;" width="12.412" height="10.048"/>
			
				<rect x="245.077" y="243.475" style="fill:#FFFFFF;stroke:#263238;stroke-width:0.8875;stroke-linecap:round;stroke-linejoin:round;stroke-miterlimit:10;" width="12.412" height="2.24"/>
			
				<rect x="245.077" y="263.508" style="fill:#FFFFFF;stroke:#263238;stroke-width:0.8875;stroke-linecap:round;stroke-linejoin:round;stroke-miterlimit:10;" width="12.412" height="20.095"/>
			<rect x="245.077" y="273.463" style="fill:#263238;" width="12.412" height="10.14"/>
			
				<rect x="329.004" y="234.548" style="fill:#FFFFFF;stroke:#263238;stroke-width:0.8875;stroke-linecap:round;stroke-linejoin:round;stroke-miterlimit:10;" width="12.412" height="20.095"/>
			<rect x="329.004" y="244.595" style="fill:#263238;" width="12.412" height="10.048"/>
			
				<rect x="329.004" y="263.508" style="fill:#FFFFFF;stroke:#263238;stroke-width:0.8875;stroke-linecap:round;stroke-linejoin:round;stroke-miterlimit:10;" width="12.412" height="20.095"/>
			<rect x="329.004" y="272.343" style="fill:#263238;" width="12.412" height="11.261"/>
			
				<rect x="285.563" y="234.548" style="fill:#FFFFFF;stroke:#263238;stroke-width:0.8875;stroke-linecap:round;stroke-linejoin:round;stroke-miterlimit:10;" width="12.412" height="20.095"/>
			<rect x="285.563" y="244.595" style="fill:#263238;" width="12.412" height="10.048"/>
			
				<rect x="285.563" y="263.508" style="fill:#FFFFFF;stroke:#263238;stroke-width:0.8875;stroke-linecap:round;stroke-linejoin:round;stroke-miterlimit:10;" width="12.412" height="20.095"/>
			<rect x="285.563" y="272.343" style="fill:#263238;" width="12.412" height="11.261"/>
			
				<rect x="285.563" y="243.475" style="fill:#FFFFFF;stroke:#263238;stroke-width:0.8875;stroke-linecap:round;stroke-linejoin:round;stroke-miterlimit:10;" width="12.412" height="2.24"/>
			
				<rect x="329.004" y="243.475" style="fill:#FFFFFF;stroke:#263238;stroke-width:0.8875;stroke-linecap:round;stroke-linejoin:round;stroke-miterlimit:10;" width="12.412" height="2.24"/>
			
				<rect x="245.077" y="271.223" style="fill:#FFFFFF;stroke:#263238;stroke-width:0.8875;stroke-linecap:round;stroke-linejoin:round;stroke-miterlimit:10;" width="12.412" height="2.24"/>
			
				<rect x="285.563" y="271.223" style="fill:#FFFFFF;stroke:#263238;stroke-width:0.8875;stroke-linecap:round;stroke-linejoin:round;stroke-miterlimit:10;" width="12.412" height="2.24"/>
			
				<rect x="329.004" y="271.223" style="fill:#FFFFFF;stroke:#263238;stroke-width:0.8875;stroke-linecap:round;stroke-linejoin:round;stroke-miterlimit:10;" width="12.412" height="2.24"/>
			<g>
				<g>
					
						<line style="fill:none;stroke:#263238;stroke-width:0.8875;stroke-linecap:round;stroke-linejoin:round;stroke-miterlimit:10;" x1="245.732" y1="220.507" x2="245.732" y2="225.438"/>
					
						<line style="fill:none;stroke:#263238;stroke-width:0.8875;stroke-linecap:round;stroke-linejoin:round;stroke-miterlimit:10;" x1="254.598" y1="220.507" x2="254.598" y2="225.438"/>
					
						<line style="fill:none;stroke:#263238;stroke-width:0.8875;stroke-linecap:round;stroke-linejoin:round;stroke-miterlimit:10;" x1="249.539" y1="225.438" x2="249.539" y2="230.369"/>
					
						<line style="fill:none;stroke:#263238;stroke-width:0.8875;stroke-linecap:round;stroke-linejoin:round;stroke-miterlimit:10;" x1="259.668" y1="225.438" x2="259.668" y2="230.369"/>
					
						<line style="fill:none;stroke:#263238;stroke-width:0.8875;stroke-linecap:round;stroke-linejoin:round;stroke-miterlimit:10;" x1="241.803" y1="225.438" x2="262.061" y2="225.438"/>
				</g>
				<g>
					
						<line style="fill:none;stroke:#263238;stroke-width:0.8875;stroke-linecap:round;stroke-linejoin:round;stroke-miterlimit:10;" x1="245.732" y1="286.356" x2="245.732" y2="291.287"/>
					
						<line style="fill:none;stroke:#263238;stroke-width:0.8875;stroke-linecap:round;stroke-linejoin:round;stroke-miterlimit:10;" x1="254.598" y1="286.356" x2="254.598" y2="291.287"/>
					
						<line style="fill:none;stroke:#263238;stroke-width:0.8875;stroke-linecap:round;stroke-linejoin:round;stroke-miterlimit:10;" x1="249.539" y1="291.287" x2="249.539" y2="296.218"/>
					
						<line style="fill:none;stroke:#263238;stroke-width:0.8875;stroke-linecap:round;stroke-linejoin:round;stroke-miterlimit:10;" x1="259.668" y1="291.287" x2="259.668" y2="296.218"/>
					
						<line style="fill:none;stroke:#263238;stroke-width:0.8875;stroke-linecap:round;stroke-linejoin:round;stroke-miterlimit:10;" x1="241.803" y1="291.287" x2="262.061" y2="291.287"/>
				</g>
				<g>
					<g>
						
							<line style="fill:none;stroke:#263238;stroke-width:0.8875;stroke-linecap:round;stroke-linejoin:round;stroke-miterlimit:10;" x1="263.7" y1="239.664" x2="263.7" y2="244.595"/>
						
							<line style="fill:none;stroke:#263238;stroke-width:0.8875;stroke-linecap:round;stroke-linejoin:round;stroke-miterlimit:10;" x1="272.566" y1="239.664" x2="272.566" y2="244.595"/>
						
							<line style="fill:none;stroke:#263238;stroke-width:0.8875;stroke-linecap:round;stroke-linejoin:round;stroke-miterlimit:10;" x1="267.507" y1="244.595" x2="267.507" y2="249.526"/>
						
							<line style="fill:none;stroke:#263238;stroke-width:0.8875;stroke-linecap:round;stroke-linejoin:round;stroke-miterlimit:10;" x1="277.636" y1="244.595" x2="277.636" y2="249.526"/>
						
							<line style="fill:none;stroke:#263238;stroke-width:0.8875;stroke-linecap:round;stroke-linejoin:round;stroke-miterlimit:10;" x1="259.771" y1="244.595" x2="280.029" y2="244.595"/>
						
							<line style="fill:none;stroke:#263238;stroke-width:0.8875;stroke-linecap:round;stroke-linejoin:round;stroke-miterlimit:10;" x1="263.7" y1="249.526" x2="280.029" y2="249.526"/>
					</g>
					<g>
						
							<line style="fill:none;stroke:#263238;stroke-width:0.8875;stroke-linecap:round;stroke-linejoin:round;stroke-miterlimit:10;" x1="263.7" y1="249.712" x2="263.7" y2="254.643"/>
						
							<line style="fill:none;stroke:#263238;stroke-width:0.8875;stroke-linecap:round;stroke-linejoin:round;stroke-miterlimit:10;" x1="272.566" y1="249.712" x2="272.566" y2="254.643"/>
						
							<line style="fill:none;stroke:#263238;stroke-width:0.8875;stroke-linecap:round;stroke-linejoin:round;stroke-miterlimit:10;" x1="267.507" y1="254.643" x2="267.507" y2="259.574"/>
						
							<line style="fill:none;stroke:#263238;stroke-width:0.8875;stroke-linecap:round;stroke-linejoin:round;stroke-miterlimit:10;" x1="277.636" y1="254.643" x2="277.636" y2="259.574"/>
						
							<line style="fill:none;stroke:#263238;stroke-width:0.8875;stroke-linecap:round;stroke-linejoin:round;stroke-miterlimit:10;" x1="259.771" y1="254.643" x2="280.029" y2="254.643"/>
					</g>
				</g>
				<g>
					<g>
						
							<line style="fill:none;stroke:#263238;stroke-width:0.8875;stroke-linecap:round;stroke-linejoin:round;stroke-miterlimit:10;" x1="307.88" y1="272.559" x2="307.88" y2="277.491"/>
						
							<line style="fill:none;stroke:#263238;stroke-width:0.8875;stroke-linecap:round;stroke-linejoin:round;stroke-miterlimit:10;" x1="316.746" y1="272.559" x2="316.746" y2="277.491"/>
						
							<line style="fill:none;stroke:#263238;stroke-width:0.8875;stroke-linecap:round;stroke-linejoin:round;stroke-miterlimit:10;" x1="311.687" y1="277.491" x2="311.687" y2="282.422"/>
						
							<line style="fill:none;stroke:#263238;stroke-width:0.8875;stroke-linecap:round;stroke-linejoin:round;stroke-miterlimit:10;" x1="321.816" y1="277.491" x2="321.816" y2="282.422"/>
						
							<line style="fill:none;stroke:#263238;stroke-width:0.8875;stroke-linecap:round;stroke-linejoin:round;stroke-miterlimit:10;" x1="303.951" y1="277.491" x2="324.209" y2="277.491"/>
						
							<line style="fill:none;stroke:#263238;stroke-width:0.8875;stroke-linecap:round;stroke-linejoin:round;stroke-miterlimit:10;" x1="307.88" y1="282.422" x2="324.209" y2="282.422"/>
					</g>
					<g>
						
							<line style="fill:none;stroke:#263238;stroke-width:0.8875;stroke-linecap:round;stroke-linejoin:round;stroke-miterlimit:10;" x1="307.88" y1="282.607" x2="307.88" y2="287.538"/>
						
							<line style="fill:none;stroke:#263238;stroke-width:0.8875;stroke-linecap:round;stroke-linejoin:round;stroke-miterlimit:10;" x1="316.746" y1="282.607" x2="316.746" y2="287.538"/>
						
							<line style="fill:none;stroke:#263238;stroke-width:0.8875;stroke-linecap:round;stroke-linejoin:round;stroke-miterlimit:10;" x1="311.687" y1="287.538" x2="311.687" y2="292.469"/>
						
							<line style="fill:none;stroke:#263238;stroke-width:0.8875;stroke-linecap:round;stroke-linejoin:round;stroke-miterlimit:10;" x1="321.816" y1="287.538" x2="321.816" y2="292.469"/>
						
							<line style="fill:none;stroke:#263238;stroke-width:0.8875;stroke-linecap:round;stroke-linejoin:round;stroke-miterlimit:10;" x1="303.951" y1="287.538" x2="324.209" y2="287.538"/>
					</g>
				</g>
			</g>
		</g>
	</g>
</g>
<g id="Ground">
	<g>
		<g>
			<path style="fill:#C6FF00;" d="M70.011,364.324c19.655,8.126,70.179-0.677,64.952,8.803c-5.227,9.481-44.757,5.925-55.996,16.168
				c-11.239,10.242,39.933,9.431,38.127,12.546c-1.778,3.066-46.846,5.235-43.878,9.427H376.66c0.492-3.279-3.029-7.262-8.702-9.969
				c-45.179-1.847-198.281-8.634-182.237-15.177c18.797-7.665,80.18-15.322,91.399-21.322s-38.483-6.667-46.8-9.333
				c-2.685-0.861-2.97-1.694-2.135-2.429l1.434,0.093v-0.912c2.603-1.1,7.027-1.829,7.027-1.829h-7.027v-1.733l-0.993,0.637
				l-1.707,1.096h-0.548c0.331-1.008,1.109-3.614,1.415-6.661c0.392-3.913-5.097,4.928-5.097,4.928s0.784-2.976,0-4.928
				s-3.137,2.607-3.137,2.607s2.745-10.849,0-17.899c-2.745-7.05-5.854,17.899-5.854,17.899s-0.42-9.673-3.949-9.866
				c-2.86-0.156-1.085,6.418-0.309,8.918c-0.356-0.873-1.097-2.243-2.617-3.695c-2.534-2.42,0,5.589,0,5.589
				s-0.995-2.385-7.612-3.553c-6.616-1.168,2.696,5.181,2.696,5.181s-4.313-1.268-8.713-1.994c-1.457-0.24-1.578,0.126-1.093,0.721
				l-0.95,0.61l-3.066,1.969c0,0,1.497-4.073,1.997-9.054c0.499-4.981-6.489,6.274-6.489,6.274s0.998-3.788,0-6.274
				c-0.998-2.485-3.993,3.318-3.993,3.318s3.494-13.812,0-22.786s-7.452,22.786-7.452,22.786s-0.535-12.314-5.027-12.56
				c-3.628-0.198-1.397,8.112-0.404,11.319c-0.46-1.113-1.41-2.844-3.321-4.669c-3.226-3.081,0,7.115,0,7.115
				s-1.267-3.036-9.69-4.523c-8.423-1.487,3.431,6.595,3.431,6.595s-5.491-1.614-11.092-2.538c-5.601-0.924,4.261,5.172,4.261,5.172
				H75.984C75.984,350.391,50.356,356.198,70.011,364.324z M192.417,347.976c0.799,0.782,2.256,1.788,3.209,2.414h-3.209V347.976z"
				/>
			<path style="fill:#C6FF00;" d="M312.572,365.526c-11.359,5.268-39.547,10.788-39.547,10.788
				c-4.491,0.604,1.583,6.359,32.77,3.504l53.352-29.428H256.875c3.423,1.762,27.786,5.815,41.646,5.815
				C312.382,356.205,323.931,360.258,312.572,365.526z"/>
			<path style="fill:#C6FF00;" d="M394.263,350.391h20.153C404.305,349.998,394.263,350.391,394.263,350.391z"/>
			<path style="fill:#C6FF00;" d="M427.517,351.56l-47.888,30.857c6.073-0.225,12.418-0.38,18.575-0.527
				c26.524-0.636,16.892-12.148,18.698-16.211c1.806-4.063,16.857-3.386,18.061-10.158
				C435.304,353.6,432.174,352.356,427.517,351.56z"/>
		</g>
		<g style="opacity:0.3;">
			<path style="fill:#FFFFFF;" d="M70.011,364.324c19.655,8.126,70.179-0.677,64.952,8.803c-5.227,9.481-44.757,5.925-55.996,16.168
				c-11.239,10.242,39.933,9.431,38.127,12.546c-1.778,3.066-46.846,5.235-43.878,9.427H376.66c0.492-3.279-3.029-7.262-8.702-9.969
				c-45.179-1.847-198.281-8.634-182.237-15.177c18.797-7.665,80.18-15.322,91.399-21.322s-38.483-6.667-46.8-9.333
				c-2.685-0.861-2.97-1.694-2.135-2.429l1.434,0.093v-0.912c2.603-1.1,7.027-1.829,7.027-1.829h-7.027v-1.733l-0.993,0.637
				l-1.707,1.096h-0.548c0.331-1.008,1.109-3.614,1.415-6.661c0.392-3.913-5.097,4.928-5.097,4.928s0.784-2.976,0-4.928
				s-3.137,2.607-3.137,2.607s2.745-10.849,0-17.899c-2.745-7.05-5.854,17.899-5.854,17.899s-0.42-9.673-3.949-9.866
				c-2.86-0.156-1.085,6.418-0.309,8.918c-0.356-0.873-1.097-2.243-2.617-3.695c-2.534-2.42,0,5.589,0,5.589
				s-0.995-2.385-7.612-3.553c-6.616-1.168,2.696,5.181,2.696,5.181s-4.313-1.268-8.713-1.994c-1.457-0.24-1.578,0.126-1.093,0.721
				l-0.95,0.61l-3.066,1.969c0,0,1.497-4.073,1.997-9.054c0.499-4.981-6.489,6.274-6.489,6.274s0.998-3.788,0-6.274
				c-0.998-2.485-3.993,3.318-3.993,3.318s3.494-13.812,0-22.786s-7.452,22.786-7.452,22.786s-0.535-12.314-5.027-12.56
				c-3.628-0.198-1.397,8.112-0.404,11.319c-0.46-1.113-1.41-2.844-3.321-4.669c-3.226-3.081,0,7.115,0,7.115
				s-1.267-3.036-9.69-4.523c-8.423-1.487,3.431,6.595,3.431,6.595s-5.491-1.614-11.092-2.538c-5.601-0.924,4.261,5.172,4.261,5.172
				H75.984C75.984,350.391,50.356,356.198,70.011,364.324z M192.417,347.976c0.799,0.782,2.256,1.788,3.209,2.414h-3.209V347.976z"
				/>
			<path style="fill:#FFFFFF;" d="M312.572,365.526c-11.359,5.268-39.547,10.788-39.547,10.788
				c-4.491,0.604,1.583,6.359,32.77,3.504l53.352-29.428H256.875c3.423,1.762,27.786,5.815,41.646,5.815
				C312.382,356.205,323.931,360.258,312.572,365.526z"/>
			<path style="fill:#FFFFFF;" d="M394.263,350.391h20.153C404.305,349.998,394.263,350.391,394.263,350.391z"/>
			<path style="fill:#FFFFFF;" d="M427.517,351.56l-47.888,30.857c6.073-0.225,12.418-0.38,18.575-0.527
				c26.524-0.636,16.892-12.148,18.698-16.211c1.806-4.063,16.857-3.386,18.061-10.158
				C435.304,353.6,432.174,352.356,427.517,351.56z"/>
		</g>
	</g>
</g>
<g id="Sign">
	<g>
		<path style="fill:#C6FF00;stroke:#263238;stroke-miterlimit:10;" d="M134.311,182.197v80.667h117.333v-80.667H134.311z
			 M145.214,192.107c-1.789,0-3.24-1.45-3.24-3.24s1.45-3.24,3.24-3.24s3.24,1.45,3.24,3.24S147.003,192.107,145.214,192.107z
			 M240.634,192.107c-1.789,0-3.24-1.45-3.24-3.24s1.45-3.24,3.24-3.24s3.24,1.45,3.24,3.24S242.423,192.107,240.634,192.107z"/>
		<path style="fill:#263238;" d="M243.874,188.868c0,1.789-1.45,3.24-3.24,3.24c-1.789,0-3.24-1.45-3.24-3.24
			c0-1.789,1.45-3.24,3.24-3.24h-95.42c1.789,0,3.24,1.45,3.24,3.24c0,1.789-1.451,3.24-3.24,3.24s-3.24-1.45-3.24-3.24
			c0-1.789,1.45-3.24,3.24-3.24h-7.526v72.782h109.458v-72.782h-6.511C242.423,185.628,243.874,187.079,243.874,188.868z"/>
		<g>
			
				<path style="fill:#FFFFFF;stroke:#263238;stroke-width:0.9166;stroke-linecap:round;stroke-linejoin:round;stroke-miterlimit:10;" d="
				M145.214,151.027c-2.602,0-4.712,2.11-4.712,4.712c0,2.602,2.109,4.712,4.712,4.712s4.712-2.109,4.712-4.712
				C149.926,153.136,147.816,151.027,145.214,151.027z M145.214,158.88c-1.735,0-3.141-1.406-3.141-3.141s1.406-3.141,3.141-3.141
				s3.141,1.406,3.141,3.141S146.949,158.88,145.214,158.88z"/>
			
				<path style="fill:#FFFFFF;stroke:#263238;stroke-width:0.9166;stroke-linecap:round;stroke-linejoin:round;stroke-miterlimit:10;" d="
				M145.214,162.313c-2.602,0-4.712,2.109-4.712,4.712c0,2.602,2.109,4.712,4.712,4.712s4.712-2.109,4.712-4.712
				C149.926,164.423,147.816,162.313,145.214,162.313z M145.214,170.166c-1.735,0-3.141-1.406-3.141-3.141s1.406-3.141,3.141-3.141
				s3.141,1.406,3.141,3.141S146.949,170.166,145.214,170.166z"/>
			
				<path style="fill:#FFFFFF;stroke:#263238;stroke-width:0.9166;stroke-linecap:round;stroke-linejoin:round;stroke-miterlimit:10;" d="
				M145.214,172.277c-2.602,0-4.712,2.109-4.712,4.712s2.109,4.712,4.712,4.712s4.712-2.109,4.712-4.712
				S147.816,172.277,145.214,172.277z M145.214,180.13c-1.735,0-3.141-1.406-3.141-3.141s1.406-3.141,3.141-3.141
				s3.141,1.406,3.141,3.141S146.949,180.13,145.214,180.13z"/>
			
				<path style="fill:#FFFFFF;stroke:#263238;stroke-width:0.9166;stroke-linecap:round;stroke-linejoin:round;stroke-miterlimit:10;" d="
				M145.214,166.514L145.214,166.514c-0.46,0-0.833-0.373-0.833-0.833v-7.771c0-0.46,0.373-0.833,0.833-0.833l0,0
				c0.46,0,0.833,0.373,0.833,0.833v7.771C146.046,166.141,145.674,166.514,145.214,166.514z"/>
			
				<path style="fill:#FFFFFF;stroke:#263238;stroke-width:0.9166;stroke-linecap:round;stroke-linejoin:round;stroke-miterlimit:10;" d="
				M145.214,177.203L145.214,177.203c-0.46,0-0.833-0.373-0.833-0.833V168.6c0-0.46,0.373-0.833,0.833-0.833l0,0
				c0.46,0,0.833,0.373,0.833,0.833v7.771C146.046,176.831,145.674,177.203,145.214,177.203z"/>
			
				<path style="fill:#FFFFFF;stroke:#263238;stroke-width:0.9166;stroke-linecap:round;stroke-linejoin:round;stroke-miterlimit:10;" d="
				M145.214,187.912L145.214,187.912c-0.46,0-0.833-0.373-0.833-0.833v-7.771c0-0.46,0.373-0.833,0.833-0.833l0,0
				c0.46,0,0.833,0.373,0.833,0.833v7.771C146.046,187.539,145.674,187.912,145.214,187.912z"/>
		</g>
		<g>
			
				<path style="fill:#FFFFFF;stroke:#263238;stroke-width:0.9166;stroke-linecap:round;stroke-linejoin:round;stroke-miterlimit:10;" d="
				M240.634,151.027c-2.602,0-4.712,2.11-4.712,4.712c0,2.602,2.109,4.712,4.712,4.712s4.712-2.109,4.712-4.712
				C245.346,153.136,243.236,151.027,240.634,151.027z M240.634,158.88c-1.735,0-3.141-1.406-3.141-3.141s1.406-3.141,3.141-3.141
				s3.141,1.406,3.141,3.141S242.369,158.88,240.634,158.88z"/>
			
				<path style="fill:#FFFFFF;stroke:#263238;stroke-width:0.9166;stroke-linecap:round;stroke-linejoin:round;stroke-miterlimit:10;" d="
				M240.634,162.313c-2.602,0-4.712,2.109-4.712,4.712c0,2.602,2.109,4.712,4.712,4.712s4.712-2.109,4.712-4.712
				C245.346,164.423,243.236,162.313,240.634,162.313z M240.634,170.166c-1.735,0-3.141-1.406-3.141-3.141s1.406-3.141,3.141-3.141
				s3.141,1.406,3.141,3.141S242.369,170.166,240.634,170.166z"/>
			
				<path style="fill:#FFFFFF;stroke:#263238;stroke-width:0.9166;stroke-linecap:round;stroke-linejoin:round;stroke-miterlimit:10;" d="
				M240.634,172.277c-2.602,0-4.712,2.109-4.712,4.712s2.109,4.712,4.712,4.712s4.712-2.109,4.712-4.712
				S243.236,172.277,240.634,172.277z M240.634,180.13c-1.735,0-3.141-1.406-3.141-3.141s1.406-3.141,3.141-3.141
				s3.141,1.406,3.141,3.141S242.369,180.13,240.634,180.13z"/>
			
				<path style="fill:#FFFFFF;stroke:#263238;stroke-width:0.9166;stroke-linecap:round;stroke-linejoin:round;stroke-miterlimit:10;" d="
				M240.634,166.514L240.634,166.514c-0.46,0-0.833-0.373-0.833-0.833v-7.771c0-0.46,0.373-0.833,0.833-0.833l0,0
				c0.46,0,0.833,0.373,0.833,0.833v7.771C241.467,166.141,241.094,166.514,240.634,166.514z"/>
			
				<path style="fill:#FFFFFF;stroke:#263238;stroke-width:0.9166;stroke-linecap:round;stroke-linejoin:round;stroke-miterlimit:10;" d="
				M240.634,177.203L240.634,177.203c-0.46,0-0.833-0.373-0.833-0.833V168.6c0-0.46,0.373-0.833,0.833-0.833l0,0
				c0.46,0,0.833,0.373,0.833,0.833v7.771C241.467,176.831,241.094,177.203,240.634,177.203z"/>
			
				<path style="fill:#FFFFFF;stroke:#263238;stroke-width:0.9166;stroke-linecap:round;stroke-linejoin:round;stroke-miterlimit:10;" d="
				M240.634,187.912L240.634,187.912c-0.46,0-0.833-0.373-0.833-0.833v-7.771c0-0.46,0.373-0.833,0.833-0.833l0,0
				c0.46,0,0.833,0.373,0.833,0.833v7.771C241.467,187.539,241.094,187.912,240.634,187.912z"/>
		</g>
		
			<polygon style="fill:#263238;stroke:#263238;stroke-width:0.8875;stroke-linecap:round;stroke-linejoin:round;stroke-miterlimit:10;" points="
			264.987,153.493 81.749,153.493 75.987,137.573 277.644,137.573 		"/>
		
			<polygon style="fill:#FFFFFF;stroke:#263238;stroke-width:0.8875;stroke-linecap:round;stroke-linejoin:round;stroke-miterlimit:10;" points="
			260.32,153.493 77.082,153.493 71.32,137.573 272.977,137.573 		"/>
		
			<polygon style="fill:#263238;stroke:#263238;stroke-width:0.8875;stroke-linecap:round;stroke-linejoin:round;stroke-miterlimit:10;" points="
			111.089,406.369 96.096,406.369 100.625,93.459 103.291,93.459 111.089,104.532 		"/>
		
			<polygon style="fill:#FFFFFF;stroke:#263238;stroke-width:0.8875;stroke-linecap:round;stroke-linejoin:round;stroke-miterlimit:10;" points="
			108.422,406.369 93.429,406.369 93.429,104.532 100.625,93.459 108.422,104.532 		"/>
		<text transform="matrix(1 0 0 1 156.9868 220.3394)"><tspan x="0" y="0" style="fill:#FFFFFF; font-family:'Lato-Bold'; font-size:35.7051px;">FOR</tspan><tspan x="-5.712" y="28.979" style="fill:#FFFFFF; font-family:'Lato-Bold'; font-size:35.7051px;">SALE</tspan></text>
		
			<line style="fill:none;stroke:#263238;stroke-width:0.8875;stroke-linecap:round;stroke-linejoin:round;stroke-miterlimit:10;" x1="96.096" y1="406.369" x2="96.096" y2="387.117"/>
		
			<line style="fill:none;stroke:#263238;stroke-width:0.8875;stroke-linecap:round;stroke-linejoin:round;stroke-miterlimit:10;" x1="98.721" y1="406.369" x2="98.721" y2="336.064"/>
		
			<line style="fill:none;stroke:#263238;stroke-width:0.8875;stroke-linecap:round;stroke-linejoin:round;stroke-miterlimit:10;" x1="96.096" y1="384.197" x2="96.096" y2="377.198"/>
		
			<line style="fill:none;stroke:#263238;stroke-width:0.8875;stroke-linecap:round;stroke-linejoin:round;stroke-miterlimit:10;" x1="103.592" y1="282.44" x2="103.592" y2="275.44"/>
		
			<line style="fill:none;stroke:#263238;stroke-width:0.8875;stroke-linecap:round;stroke-linejoin:round;stroke-miterlimit:10;" x1="96.096" y1="107.517" x2="96.096" y2="100.517"/>
		
			<line style="fill:none;stroke:#263238;stroke-width:0.8875;stroke-linecap:round;stroke-linejoin:round;stroke-miterlimit:10;" x1="96.096" y1="116.741" x2="96.096" y2="109.742"/>
		
			<line style="fill:none;stroke:#263238;stroke-width:0.8875;stroke-linecap:round;stroke-linejoin:round;stroke-miterlimit:10;" x1="103.592" y1="326.823" x2="103.592" y2="290.299"/>
		
			<line style="fill:none;stroke:#263238;stroke-width:0.8875;stroke-linecap:round;stroke-linejoin:round;stroke-miterlimit:10;" x1="72.788" y1="140.895" x2="78.039" y2="140.895"/>
		
			<line style="fill:none;stroke:#263238;stroke-width:0.8875;stroke-linecap:round;stroke-linejoin:round;stroke-miterlimit:10;" x1="75.122" y1="143.52" x2="87.666" y2="143.52"/>
		
			<line style="fill:none;stroke:#263238;stroke-width:0.8875;stroke-linecap:round;stroke-linejoin:round;stroke-miterlimit:10;" x1="121.766" y1="143.52" x2="134.311" y2="143.52"/>
		
			<line style="fill:none;stroke:#263238;stroke-width:0.8875;stroke-linecap:round;stroke-linejoin:round;stroke-miterlimit:10;" x1="128.038" y1="146.438" x2="132.454" y2="146.438"/>
		
			<line style="fill:none;stroke:#263238;stroke-width:0.8875;stroke-linecap:round;stroke-linejoin:round;stroke-miterlimit:10;" x1="150.307" y1="146.438" x2="176.487" y2="146.438"/>
		
			<line style="fill:none;stroke:#263238;stroke-width:0.8875;stroke-linecap:round;stroke-linejoin:round;stroke-miterlimit:10;" x1="266.206" y1="146.438" x2="261.83" y2="146.438"/>
		
			<line style="fill:none;stroke:#263238;stroke-width:0.8875;stroke-linecap:round;stroke-linejoin:round;stroke-miterlimit:10;" x1="264.164" y1="148.48" x2="249.286" y2="148.48"/>
		
			<path style="fill:#263238;stroke:#263238;stroke-width:0.9166;stroke-linecap:round;stroke-linejoin:round;stroke-miterlimit:10;" d="
			M62.977,411.036h9.81c0,0-17.833-15.919-9.81-14.293c8.023,1.626,15.062,7.272,15.062,7.272s-9.462-8.898-2.917-7.272
			c6.545,1.626,6.272,4.293,6.272,4.293s0.509-19.229,6.272-13.919s5.763,11.496,5.763,11.496s12.326-15.253,14.993-14.415
			c2.667,0.838,2.667,10.169,2.667,10.169s20.707-16.876,16.95-7.25c-3.758,9.626-6.272,13.252-6.272,13.252s9.726-8.586,8.48-3.626
			c-1.246,4.96-2.208,6.96-2.208,6.96s14.626,4.579,12.464,4.573c-2.163-0.006-6.192,2.761-6.192,2.761s24.689-4,20.023,0
			c-4.667,4-43.245,3.333-43.245,3.333s18.777,4.667,10.677,4.667s-20.84-3.333-20.84-3.333s-19.015,4-25.804,3.333
			c-6.788-0.667,12.545-3.333,12.545-3.333S50.833,415.702,62.977,411.036z"/>
	</g>
</g>
</svg>
